<?xml version="1.0" standalone="no"?>
<!DOCTYPE svg PUBLIC "-//W3C//DTD SVG 20010904//EN"
 "http://www.w3.org/TR/2001/REC-SVG-20010904/DTD/svg10.dtd">
<svg version="1.0" xmlns="http://www.w3.org/2000/svg"
 width="260.000000pt" height="260.000000pt" viewBox="0 0 260.000000 260.000000"
 preserveAspectRatio="xMidYMid meet">
<metadata>
Created by potrace 1.11, written by Peter Selinger 2001-2013
</metadata>
<g transform="translate(0.000000,260.000000) scale(0.100000,-0.100000)"
fill="#000000" stroke="none">
<path d="M120 2341 c-13 -5 -15 -55 -15 -361 l1 -355 47 -3 c45 -3 47 -2 48
25 1 15 1 141 1 279 l1 252 276 -280 276 -280 21 65 21 65 -297 297 c-262 262
-302 298 -331 300 -19 1 -41 0 -49 -4z"/>
<path d="M1922 2340 c-9 -6 -9 -52 0 -65 3 -6 53 -10 117 -9 l111 1 0 -323 0
-324 45 0 c29 0 45 5 46 13 1 6 2 152 3 322 l1 310 100 1 c55 1 108 2 118 3
14 1 17 9 14 38 l-2 38 -273 0 c-151 0 -276 -2 -280 -5z"/>
<path d="M1307 2237 c-16 -50 -53 -168 -82 -262 -30 -93 -74 -234 -98 -312
l-44 -141 71 -60 c39 -33 81 -68 92 -78 51 -44 130 -111 164 -139 46 -37 268
-225 291 -245 9 -8 28 -25 42 -37 45 -41 45 -39 -7 122 -94 297 -248 789 -252
804 -13 54 -139 441 -144 441 -3 0 -18 -42 -33 -93z"/>
<path d="M1039 1389 c-4 -21 -12 -49 -44 -149 -58 -180 -100 -314 -145 -460
-23 -74 -66 -213 -96 -308 -31 -95 -53 -179 -51 -185 2 -8 172 -11 645 -12
637 0 642 0 636 20 -26 83 -78 250 -93 295 -11 30 -22 67 -25 81 -3 15 -30 47
-63 75 -32 27 -60 51 -63 54 -3 3 -32 27 -65 55 -33 27 -62 52 -65 55 -3 3
-45 39 -95 80 -49 41 -92 77 -95 80 -3 3 -45 39 -95 80 -49 41 -95 80 -101 85
-6 6 -32 28 -59 50 -60 51 -65 55 -98 84 -15 14 -27 23 -28 20z"/>
<path d="M110 959 l0 -39 118 0 117 0 0 -322 0 -323 45 0 45 0 3 323 2 322
114 0 c124 0 128 2 118 57 l-4 22 -279 0 -279 -1 0 -39z"/>
<path d="M2389 983 c0 -10 0 -134 0 -275 0 -257 -2 -276 -33 -245 -7 6 -37 33
-67 59 -30 25 -65 56 -79 68 -14 12 -45 39 -70 60 -25 21 -58 50 -75 65 -16
14 -51 44 -77 66 l-47 40 35 -105 c39 -115 22 -95 224 -276 46 -41 95 -86 109
-99 62 -56 86 -69 129 -68 23 0 42 6 43 11 1 14 1 663 0 694 -1 19 -6 22 -46
22 -36 0 -45 -4 -46 -17z"/>
</g>
</svg>
