<svg width="20" height="20" viewBox="0 0 20 20" version="1.1" xmlns="http://www.w3.org/2000/svg" xmlns:xlink="http://www.w3.org/1999/xlink">
<title>about</title>
<desc>Created using Figma</desc>
<g id="Canvas" transform="translate(-10190 -837)">
<g id="about">
<g id="about">
<use xlink:href="#path0_fill" transform="translate(10190 837)" fill="#2B2B2B"/>
</g>
</g>
</g>
<defs>
<path id="path0_fill" d="M 19.7354 18.2689C 19.6855 17.8715 19.544 17.4912 19.3221 17.1578C 18.8158 16.469 18.0653 16 17.2243 15.8467C 15.956 15.5774 14.7163 15.1875 13.5221 14.6823C 13.351 14.6017 13.2014 14.4818 13.0855 14.3323C 12.9696 14.1829 12.8908 14.0081 12.8555 13.8223C 12.8036 13.6003 12.7901 13.371 12.8155 13.1445C 12.8333 12.9667 12.854 12.7852 12.8777 12.6C 12.9488 12.0267 13.0399 11.4045 13.1599 10.7156C 13.3431 10.4742 13.5137 10.2235 13.671 9.9645C 14.5377 8.52229 15.0199 6.92452 15.0044 5.52008C 15.0217 4.15919 14.534 2.84017 13.6355 1.81788C 12.7488 0.800108 11.4844 0.0112238 9.99994 0.000112802C 8.51551 -0.0109982 7.25996 0.800108 6.37552 1.8201C 5.47705 2.8424 4.98935 4.16141 5.00664 5.5223C 5.00664 6.91785 5.47775 8.51562 6.33996 9.96672C 6.49478 10.221 6.6624 10.4672 6.84218 10.7045C 6.96441 11.3978 7.0644 12.0245 7.12663 12.6023C 7.15181 12.8037 7.17403 12.9993 7.19329 13.1889C 7.21687 13.4017 7.20181 13.617 7.14885 13.8245C 7.11352 14.0103 7.03469 14.1851 6.91881 14.3346C 6.80294 14.484 6.65331 14.6039 6.48219 14.6845C 5.28805 15.1897 4.04834 15.5796 2.77998 15.8489C 1.93902 16.0022 1.18851 16.4713 0.682218 17.16C 0.460355 17.4934 0.318869 17.8738 0.268887 18.2711L 0.268887 18.2711C 0.204443 18.7089 0 19.8444 0 20L 19.9999 20C 19.9999 19.8444 19.7954 18.7089 19.7354 18.2689ZM 5.6333 5.52675L 5.6333 5.51564C 5.61297 4.30498 6.04571 3.13041 6.84663 2.22232C 7.36218 1.62899 8.45551 0.633443 10.0022 0.617887C 11.5488 0.602332 12.6444 1.63566 13.1577 2.22232C 13.9588 3.12883 14.393 4.30155 14.3755 5.51119L 14.3755 5.5223C 14.3755 6.79785 13.931 8.29562 13.1288 9.62895C 12.5888 10.5156 11.4688 12 9.99994 12C 8.53106 12 7.41774 10.5156 6.88885 9.63784C 6.07774 8.30007 5.62219 6.8023 5.6333 5.52675ZM 0.722218 19.3756L 0.759996 19.1533C 0.811107 18.8422 0.859995 18.5489 0.886662 18.36C 0.923046 18.0557 1.03037 17.7642 1.19999 17.5089C 1.61275 16.9499 2.22307 16.5692 2.90665 16.4445C 4.21381 16.1669 5.49146 15.7651 6.72218 15.2445C 6.98475 15.1276 7.21578 14.95 7.39621 14.7263C 7.57664 14.5026 7.70132 14.2392 7.75996 13.9578C 7.83 13.6814 7.85032 13.3947 7.81996 13.1111C 7.79996 12.9156 7.77773 12.7178 7.75329 12.5112C 7.71551 12.1956 7.66885 11.8734 7.61996 11.5467C 8.30662 12.1934 9.11106 12.6223 9.99994 12.6267C 10.8888 12.6312 11.6955 12.1978 12.3799 11.5556C 12.331 11.8778 12.2866 12.1978 12.2466 12.5112C 12.2229 12.7008 12.2022 12.886 12.1844 13.0667C 12.1519 13.364 12.1707 13.6647 12.2399 13.9556C 12.2988 14.2372 12.4238 14.5007 12.6046 14.7244C 12.7855 14.9482 13.0169 15.1257 13.2799 15.2422C 14.5098 15.7635 15.7867 16.1661 17.0932 16.4445C 17.776 16.5645 18.3876 16.9394 18.8043 17.4933C 18.9728 17.7519 19.0779 18.0465 19.111 18.3533C 19.1377 18.5422 19.1843 18.8356 19.2354 19.1467L 19.2732 19.3689L 0.722218 19.3756Z"/>
</defs>
</svg>
