<?xml version="1.0" standalone="no"?>
<!DOCTYPE svg PUBLIC "-//W3C//DTD SVG 20010904//EN"
 "http://www.w3.org/TR/2001/REC-SVG-20010904/DTD/svg10.dtd">
<svg version="1.0" xmlns="http://www.w3.org/2000/svg"
 width="1100.000000pt" height="733.000000pt" viewBox="0 0 1100.000000 733.000000"
 preserveAspectRatio="xMidYMid meet">
<metadata>
Created by potrace 1.15, written by Peter Selinger 2001-2017
</metadata>
<g transform="translate(0.000000,733.000000) scale(0.100000,-0.100000)"
fill="#000000" stroke="none">
<path d="M0 6856 l1 -475 35 -21 c40 -25 61 -21 66 12 2 15 11 24 26 26 26 4
26 4 6 -38 -16 -30 -16 -33 0 -42 9 -5 16 -15 16 -22 0 -28 43 -66 98 -86 70
-26 122 -60 122 -80 0 -9 20 -38 44 -65 l43 -50 -16 -32 c-15 -31 -32 -36 -58
-20 -7 5 -13 16 -13 25 -1 9 -10 28 -21 41 -18 23 -24 24 -105 18 -63 -3 -84
-2 -81 7 5 11 -17 143 -24 151 -4 3 -56 8 -76 6 -7 -1 -13 -10 -13 -20 0 -13
-8 -21 -22 -23 -13 -2 -24 -11 -26 -21 -5 -23 25 -57 50 -57 21 0 98 -41 98
-52 0 -4 -7 -13 -15 -22 -20 -20 -19 -38 3 -35 20 3 92 -38 92 -53 0 -5 7 -17
16 -25 10 -11 14 -25 9 -42 -3 -14 -7 -35 -8 -47 -3 -28 -23 -51 -51 -58 -35
-9 -38 -32 -8 -64 18 -19 41 -31 70 -35 23 -4 42 -11 42 -16 0 -6 9 -12 19
-16 10 -3 22 -16 25 -28 6 -25 53 -57 84 -57 11 0 27 -3 36 -6 18 -7 22 -39 6
-49 -6 -3 -10 -11 -10 -17 0 -6 18 -7 50 -3 34 5 55 3 65 -5 21 -17 19 -30 -5
-30 -11 0 -20 -3 -20 -7 0 -13 -79 -47 -123 -52 -37 -5 -42 -9 -45 -33 -3 -28
-16 -36 -27 -18 -8 13 -41 13 -67 -1 -21 -11 -21 -12 -2 -26 16 -12 17 -15 4
-23 -13 -9 -63 -5 -82 7 -4 2 -3 15 2 28 6 16 6 25 0 25 -6 0 -10 -5 -10 -10
0 -23 -31 -21 -50 3 -12 15 -34 27 -57 31 -21 3 -47 13 -57 21 -19 14 -19 16
-2 48 23 41 18 71 -12 75 -21 3 -22 0 -22 -67 0 -41 4 -71 10 -71 6 0 10 -6
10 -13 0 -7 16 -21 36 -32 28 -15 35 -24 31 -43 -5 -28 16 -52 47 -52 29 0
101 -56 101 -78 0 -12 -8 -16 -27 -15 -40 3 -35 -21 9 -48 37 -23 55 -27 163
-32 30 -2 75 -9 99 -16 24 -7 53 -10 65 -7 12 3 39 1 60 -5 28 -8 41 -8 46 0
3 6 21 16 39 21 26 7 39 5 59 -7 45 -28 72 -56 72 -74 0 -24 36 -30 54 -10 24
27 19 41 -19 57 -33 14 -48 34 -24 34 7 0 9 9 5 23 -4 12 -8 28 -10 35 -1 8
-8 17 -15 22 -22 13 6 22 48 15 50 -8 58 5 23 38 -15 13 -36 36 -47 50 -11 15
-35 31 -52 37 -26 9 -33 17 -33 37 0 27 -60 99 -95 113 -14 6 -8 8 23 6 23 -2
51 -11 60 -20 10 -9 23 -16 29 -16 14 0 57 -38 59 -54 2 -15 59 -76 71 -76 4
0 28 -18 52 -40 24 -22 50 -40 57 -40 8 0 14 -4 14 -9 0 -5 15 -13 33 -16 17
-4 37 -11 42 -15 6 -4 24 -10 40 -14 31 -8 71 -43 61 -53 -3 -4 -6 -3 -6 1 0
4 -9 2 -20 -4 -30 -16 -26 -56 8 -76 104 -65 108 -69 63 -85 -16 -6 -32 -17
-35 -25 -7 -19 -50 -18 -66 1 -10 12 -24 14 -56 9 -38 -5 -72 1 -141 27 -31
11 -53 -15 -24 -30 11 -6 21 -21 23 -33 2 -13 8 -23 13 -23 23 -1 85 -30 89
-41 3 -7 -10 -22 -29 -33 -26 -15 -33 -25 -31 -46 3 -28 47 -86 53 -68 3 8 16
6 43 -5 33 -14 40 -22 40 -45 0 -28 0 -28 -52 -23 -43 5 -57 3 -75 -12 -43
-37 -13 -106 51 -118 l39 -7 -6 40 c-6 37 -5 41 18 45 14 3 26 0 29 -8 3 -7
17 -16 31 -20 14 -3 25 -12 25 -20 0 -15 16 -19 24 -5 10 15 56 -1 68 -23 6
-11 15 -24 19 -27 5 -3 9 -18 10 -35 2 -36 26 -100 55 -139 25 -34 33 -76 37
-191 l3 -81 -44 -13 c-29 -8 -47 -21 -54 -36 -6 -13 -17 -24 -24 -24 -14 0
-44 -50 -44 -72 0 -7 12 -24 25 -37 19 -17 23 -27 15 -36 -8 -9 -7 -14 2 -18
10 -3 9 -9 -4 -24 -10 -11 -18 -26 -18 -34 1 -11 3 -10 10 2 13 22 76 10 74
-13 -1 -11 5 -14 19 -10 14 3 18 1 13 -6 -4 -7 -1 -12 9 -12 11 0 15 5 12 15
-4 8 -1 18 6 22 26 16 142 9 131 -8 -3 -5 9 -9 25 -9 22 0 31 5 31 16 0 10 5
14 16 10 9 -4 13 -2 8 5 -4 6 -1 15 7 20 9 5 12 23 10 49 -2 34 1 42 16 46 15
4 18 12 15 35 -6 43 11 58 59 52 31 -5 44 -1 62 15 12 12 37 35 55 52 21 19
30 34 25 42 -5 10 -8 8 -11 -5 -4 -18 -4 -18 -17 -1 -12 17 -14 17 -40 0 -44
-29 -98 -3 -64 31 18 18 -7 93 -31 93 -13 0 -20 7 -20 20 0 11 -4 20 -10 20
-21 0 -9 28 22 51 37 28 47 38 71 72 11 14 32 29 48 32 37 8 65 56 49 85 -8
14 -7 25 2 40 16 25 24 25 38 0 8 -15 21 -20 51 -20 46 0 94 -22 109 -49 14
-28 3 -49 -24 -44 -12 3 -28 -2 -34 -10 -10 -11 -2 -16 46 -27 31 -7 60 -16
65 -20 4 -3 -15 -21 -43 -39 -41 -27 -49 -36 -39 -47 6 -8 26 -14 43 -14 18 0
37 -5 44 -12 7 -7 12 -8 12 -3 0 4 9 0 21 -11 20 -18 22 -18 51 -1 16 9 38 17
48 17 20 0 100 -49 100 -61 0 -4 8 -5 19 -2 10 3 22 0 26 -7 4 -7 -1 -13 -13
-17 -14 -3 -19 -11 -17 -24 7 -34 -5 -49 -40 -49 -39 0 -57 19 -26 27 37 9 23
24 -21 22 -57 -3 -62 -7 -43 -36 12 -18 14 -28 5 -38 -7 -9 -8 -15 -1 -20 17
-10 148 -7 168 3 12 7 25 7 37 0 10 -5 27 -7 39 -4 16 4 29 -3 49 -24 15 -17
37 -30 50 -31 15 0 18 -3 8 -6 -8 -3 -22 -14 -32 -23 -18 -16 -16 -19 42 -54
41 -26 68 -36 83 -32 17 4 25 -1 34 -19 6 -14 7 -25 2 -25 -4 0 -6 -6 -3 -14
7 -17 42 -28 50 -15 3 5 21 7 40 3 27 -5 34 -3 34 10 0 9 -4 16 -10 16 -5 0
-10 7 -10 15 0 8 3 15 8 15 12 0 42 -39 42 -55 0 -8 5 -15 10 -15 12 0 13 33
1 45 -5 6 -12 20 -16 33 -5 19 -3 22 19 22 14 0 26 -5 26 -10 0 -6 8 -5 20 2
11 7 20 16 20 20 0 5 -9 8 -20 8 -11 0 -20 4 -20 10 0 5 -10 12 -22 15 -22 6
-48 45 -48 72 0 8 -7 16 -15 19 -13 5 -13 8 0 21 8 8 15 21 15 29 0 8 10 14
25 14 16 0 25 -6 25 -15 0 -8 -4 -15 -10 -15 -14 0 -12 -64 2 -78 7 -7 22 -12
35 -12 14 0 23 -6 23 -15 0 -21 50 -19 66 3 7 9 14 27 14 40 0 15 6 22 20 22
24 0 40 -27 33 -61 -3 -19 1 -28 21 -39 14 -7 26 -17 26 -21 0 -4 20 -11 45
-15 25 -3 48 -10 51 -15 9 -15 21 -10 27 13 5 18 8 19 22 8 9 -7 14 -19 11
-25 -8 -21 16 -35 56 -35 27 0 38 4 38 15 0 8 7 15 15 15 18 0 19 12 3 28 -9
9 -7 12 9 12 30 0 26 -55 -6 -81 -13 -11 -22 -21 -20 -22 2 -2 18 -9 34 -16
65 -29 80 -40 87 -67 5 -21 3 -31 -7 -37 -16 -8 -21 -47 -7 -47 4 0 13 5 20
12 9 9 12 8 12 -5 0 -19 16 -23 22 -6 5 14 99 -11 105 -28 6 -15 53 -18 53 -3
0 6 18 10 40 10 22 0 40 -4 40 -10 0 -5 -15 -10 -34 -10 -19 0 -38 -4 -41 -10
-4 -6 23 -10 74 -10 47 0 81 -4 81 -10 0 -5 18 -10 40 -10 22 0 40 5 40 10 0
6 33 10 80 10 47 0 80 -4 80 -10 0 -5 -18 -10 -40 -10 -29 0 -40 -4 -40 -15 0
-11 11 -15 40 -15 36 0 40 -3 40 -24 0 -23 4 -24 80 -31 44 -4 80 -11 80 -16
0 -5 10 -9 21 -9 12 0 28 -8 36 -17 10 -13 16 -15 19 -5 8 17 24 15 24 -3 0
-20 36 -19 44 0 3 10 14 14 29 11 36 -6 52 7 33 27 -21 21 -20 40 2 33 55 -16
75 -18 68 -7 -14 22 19 40 65 34 29 -3 39 -1 31 5 -11 7 -10 11 5 17 10 5 21
7 26 7 12 -3 8 16 -8 32 -9 8 -17 19 -18 23 -1 4 -10 7 -21 5 -10 -1 -25 3
-33 9 -7 7 -16 9 -20 5 -3 -3 -1 -6 5 -6 7 0 12 -4 12 -10 0 -19 -38 -10 -43
10 -3 13 0 20 8 20 8 0 16 9 20 19 7 23 37 28 120 20 61 -6 96 4 52 15 -19 4
-24 12 -23 35 1 26 3 28 24 20 33 -13 41 -11 38 9 -2 12 -15 19 -42 22 -25 3
-34 8 -26 13 14 9 17 41 3 33 -5 -4 -41 -2 -80 4 -63 9 -74 14 -105 47 -28 31
-37 36 -47 26 -18 -17 -42 -16 -84 4 -38 18 -44 33 -20 53 12 10 13 16 4 26
-13 16 -39 19 -39 5 0 -12 -89 -1 -124 15 -16 8 -34 14 -39 14 -6 0 -18 7 -27
15 -13 12 -23 13 -43 6 -23 -9 -25 -7 -30 22 -6 43 1 57 27 57 12 0 25 9 31
23 6 12 20 26 33 32 30 13 28 25 -5 25 -16 0 -43 1 -62 3 -29 2 -34 -1 -38
-23 -5 -39 -11 -50 -26 -50 -9 0 -14 10 -14 27 0 15 -10 34 -22 44 -11 9 -21
22 -21 28 0 19 44 41 82 41 54 0 88 16 88 41 0 18 4 20 28 14 30 -9 197 -7
226 2 18 5 18 6 2 15 -16 9 -16 11 1 23 15 12 21 11 36 -6 15 -16 16 -23 7
-34 -7 -8 -20 -15 -30 -15 -23 0 -34 -30 -17 -47 11 -11 22 -10 66 8 46 20 52
25 46 46 -5 19 -2 23 20 23 16 0 25 -6 25 -15 0 -8 9 -15 19 -15 20 0 51 24
51 40 0 4 36 7 80 6 44 0 80 2 80 7 0 12 45 8 58 -5 9 -9 15 -9 23 -1 7 7 3
18 -15 38 -14 15 -26 31 -26 35 0 12 45 49 75 61 21 8 25 13 15 17 -8 3 -17 8
-20 13 -3 4 -21 8 -40 9 -59 3 -64 1 -39 -19 22 -18 23 -20 6 -27 -10 -3 -30
-1 -44 5 -16 7 -30 8 -35 3 -6 -6 -21 -5 -39 1 -21 9 -32 8 -41 -1 -9 -9 -5
-13 20 -18 18 -4 32 -11 32 -16 0 -6 -11 -7 -27 -3 -16 4 -50 9 -77 11 -61 5
-87 24 -33 24 35 0 37 1 26 21 -14 26 -3 38 39 44 18 2 39 11 48 19 20 20 43
20 50 1 7 -18 37 -19 64 -3 15 10 26 10 53 0 35 -13 115 -17 104 -5 -4 3 -2
12 4 19 11 13 4 16 -58 29 -44 9 -42 21 5 22 39 2 87 -21 77 -37 -4 -6 -1 -10
4 -10 6 0 11 4 11 9 0 4 24 9 53 9 52 0 53 0 55 -31 4 -51 32 -71 97 -70 81 2
68 -36 -18 -52 -27 -5 -37 -3 -44 10 -8 14 -11 15 -22 1 -20 -24 -10 -61 17
-60 12 0 22 -5 22 -13 0 -7 -4 -13 -10 -13 -5 0 -10 -4 -10 -10 0 -5 8 -10 18
-10 10 0 22 -4 27 -9 6 -5 28 -11 50 -14 57 -8 129 -30 149 -46 21 -18 20 -48
-3 -62 -15 -10 -17 -17 -8 -45 13 -44 44 -63 112 -70 44 -4 56 -2 61 11 9 22
29 19 74 -14 l40 -29 -35 -21 c-19 -11 -35 -25 -35 -32 0 -6 -7 -8 -16 -5 -14
5 -15 4 -5 -8 9 -11 10 -20 1 -36 -11 -20 -6 -40 10 -40 15 0 80 -63 80 -78 0
-23 32 -42 52 -31 9 5 39 11 65 12 26 2 65 11 85 21 42 20 73 16 108 -14 13
-11 33 -20 45 -20 13 0 25 -7 29 -15 3 -9 18 -15 35 -15 16 0 33 -5 36 -10 14
-23 158 8 169 36 11 30 136 -5 150 -41 9 -23 9 -23 -22 -39 -15 -8 -21 -15
-14 -16 6 0 12 -5 12 -11 0 -8 -15 -9 -45 -5 -37 6 -45 4 -45 -8 0 -9 -7 -16
-15 -16 -8 0 -15 -4 -15 -9 0 -5 -3 -16 -6 -25 -4 -12 0 -16 16 -16 11 0 18
-4 15 -10 -6 -10 -64 -2 -79 11 -5 5 -4 14 4 24 14 16 3 20 -19 6 -7 -5 -11
-13 -7 -19 7 -12 -11 -25 -37 -27 -18 -2 -37 -21 -37 -37 0 -11 48 -10 69 1 9
5 35 12 57 15 21 3 51 8 67 11 27 5 66 -8 79 -29 9 -13 11 -52 2 -43 -3 3 -15
-4 -26 -15 -18 -18 -19 -22 -5 -30 9 -5 14 -15 10 -24 -5 -14 2 -15 59 -9 86
9 127 -11 142 -68 8 -32 34 -46 47 -26 7 11 9 11 9 -2 0 -9 7 -22 15 -29 8 -7
12 -16 9 -21 -9 -15 13 -10 26 6 7 8 9 15 5 15 -5 0 -1 8 8 18 10 10 14 22 10
25 -3 4 -1 7 6 7 7 0 9 -9 5 -25 -6 -24 -4 -25 35 -25 39 0 41 2 41 30 0 23 5
30 19 30 10 0 24 6 30 14 10 11 8 16 -5 24 -16 9 -15 11 5 22 24 13 71 6 71
-10 0 -14 53 -13 67 1 8 8 17 8 32 0 18 -10 21 -9 21 9 0 17 6 20 40 20 33 0
40 -3 40 -20 0 -14 -7 -20 -24 -20 -32 0 -56 -10 -56 -22 0 -17 44 -58 63 -58
9 0 17 7 17 15 0 11 12 15 46 15 31 0 51 5 58 15 12 16 96 27 96 13 0 -4 6 -8
13 -8 18 0 89 37 99 52 6 9 8 5 6 -11 -4 -33 32 -43 147 -41 90 1 129 10 106
24 -6 4 -11 12 -11 18 0 7 6 6 15 -2 13 -11 15 -9 15 13 0 14 7 27 15 31 8 3
20 17 25 31 7 18 16 24 31 22 11 -2 24 -8 27 -13 11 -15 112 -11 112 4 0 6 4
12 10 12 5 0 7 -7 4 -15 -4 -8 -1 -15 5 -15 7 0 5 -13 -6 -34 -14 -29 -19 -33
-34 -23 -14 9 -22 7 -37 -6 -10 -9 -26 -17 -35 -17 -27 0 -28 -16 -2 -38 21
-18 38 -22 100 -22 46 0 75 4 75 11 0 5 5 7 10 4 6 -4 10 -14 9 -23 -3 -33 1
-42 19 -42 9 0 23 9 30 20 12 20 42 28 42 10 0 -5 -8 -13 -17 -19 -23 -12 -14
-20 31 -28 32 -5 36 -3 36 16 0 12 4 19 10 16 6 -3 10 1 10 10 0 9 4 13 10 10
6 -3 10 -15 10 -26 0 -13 7 -19 23 -19 13 0 28 -5 34 -11 8 -8 16 -8 30 0 10
6 13 11 7 11 -6 0 -20 8 -32 18 l-21 18 33 12 c18 7 55 12 83 12 52 0 50 -1
81 63 2 4 -10 7 -27 7 -19 0 -34 -6 -37 -15 -7 -17 -43 -11 -56 8 -5 8 -17 8
-41 0 -31 -9 -36 -8 -51 12 -15 20 -20 21 -41 11 -14 -6 -25 -17 -25 -23 0 -8
-13 -13 -30 -13 -22 0 -33 6 -41 24 -10 21 -15 23 -37 15 -14 -5 -31 -8 -39
-5 -7 3 -13 0 -13 -6 0 -9 -3 -9 -11 -1 -8 8 -7 20 4 43 15 30 15 31 -6 40
-20 7 -21 9 -3 15 11 5 21 3 26 -5 5 -8 9 -9 14 -1 4 6 5 15 2 20 -4 5 7 20
23 34 l30 25 -20 21 c-11 12 -24 19 -28 16 -5 -2 -8 6 -7 18 1 16 8 23 29 25
15 2 27 -1 27 -6 0 -6 24 3 53 18 28 15 71 31 95 35 23 4 42 11 42 16 0 18 2
24 12 36 14 18 0 35 -24 27 -13 -4 -18 -2 -14 4 3 6 28 9 55 8 41 -2 55 -8 79
-34 35 -37 34 -37 72 -17 21 11 36 12 55 5 33 -13 32 -13 39 6 4 11 1 14 -13
9 -12 -3 -21 0 -25 10 -4 11 -16 16 -33 15 -51 -4 -59 0 -32 15 15 8 29 21 33
30 3 8 15 15 26 15 12 0 19 4 15 10 -3 5 1 25 9 44 16 37 13 46 -16 46 -25 0
-46 -21 -40 -40 2 -9 -2 -6 -11 5 -14 18 -26 20 -109 18 -51 -1 -108 2 -126 8
-27 9 -37 8 -59 -8 -14 -10 -43 -28 -65 -41 l-38 -23 -11 27 c-10 29 -53 74
-70 74 -5 0 -9 5 -9 11 0 7 20 8 63 4 66 -7 213 8 260 27 32 12 97 67 97 81 0
4 7 15 15 23 36 36 3 64 -46 38 -21 -10 -62 -15 -137 -16 -106 -1 -107 -1
-110 23 -2 13 -11 32 -19 41 -11 12 -14 29 -10 54 l6 36 -24 -16 c-33 -22 -62
-20 -75 5 -19 35 -7 49 65 74 39 14 75 32 81 40 6 8 20 15 31 15 11 0 37 17
57 37 33 33 43 38 82 36 31 -1 44 2 44 12 0 7 16 19 35 25 36 12 39 19 29 57
-5 18 -16 23 -60 29 -60 7 -83 24 -59 44 8 7 15 18 15 24 0 18 -35 35 -59 29
-28 -7 -27 15 2 27 12 5 33 19 46 30 19 17 23 25 15 38 -15 25 -15 85 -1 102
16 20 54 37 97 45 52 9 140 46 141 59 0 6 2 24 2 41 2 21 8 31 22 33 11 3 24
10 30 17 5 8 21 15 35 17 15 2 26 11 29 23 2 11 14 33 27 51 13 17 24 36 24
41 0 6 17 18 39 26 21 9 41 23 44 31 5 11 17 15 39 14 31 -3 33 -1 33 27 0 28
-3 30 -44 33 -30 2 -49 -2 -62 -14 -12 -11 -38 -18 -76 -19 -32 -1 -71 -7 -86
-13 -39 -16 -76 -15 -93 3 -9 8 -33 15 -55 15 -32 0 -39 4 -39 19 0 24 -19 31
-86 31 -50 0 -54 -2 -54 -23 0 -27 -33 -62 -49 -53 -12 8 -51 -23 -51 -41 0
-15 43 -17 69 -3 14 7 23 4 39 -14 11 -13 28 -29 39 -35 29 -17 -4 -33 -56
-25 -43 5 -43 5 -37 -20 3 -13 2 -28 -4 -31 -5 -3 -10 -15 -10 -25 0 -11 -11
-27 -25 -36 -14 -9 -25 -25 -25 -35 0 -11 -7 -22 -15 -25 -14 -6 -22 -34 -9
-34 3 0 24 11 47 24 54 31 114 49 134 42 13 -5 11 -11 -11 -33 -17 -16 -25
-34 -23 -45 7 -25 -8 -31 -35 -17 -29 16 -89 11 -103 -8 -9 -12 -18 -13 -54
-3 -24 6 -74 12 -112 13 -38 1 -69 5 -69 9 0 5 -8 8 -18 8 -15 0 -19 9 -20 44
-2 47 6 58 53 73 18 6 29 17 29 27 -1 9 2 16 6 16 5 0 20 4 35 10 24 9 25 11
11 37 -7 16 -14 41 -14 56 0 26 -8 36 -56 69 -8 5 -7 13 1 27 11 17 9 20 -18
26 -19 4 -35 17 -45 36 -14 28 -14 33 3 62 14 24 27 33 51 35 24 2 32 -1 32
-12 0 -9 5 -16 10 -16 6 0 10 5 10 10 0 6 19 11 43 11 42 1 114 16 88 18 -8 0
3 13 24 27 32 21 42 24 62 15 25 -11 31 -36 11 -44 -8 -2 -9 -8 -4 -13 5 -5
11 -4 13 4 3 6 12 12 22 12 9 0 22 5 27 10 13 13 44 2 44 -15 0 -15 27 -28 41
-19 14 8 59 -4 59 -16 0 -6 -17 -10 -37 -10 l-38 -1 28 -24 c31 -27 88 -33
130 -14 22 10 24 13 12 36 -12 23 -10 27 36 70 33 31 48 52 44 63 -6 20 65 70
101 70 14 0 35 11 48 25 13 14 29 25 36 25 6 0 26 6 43 14 50 22 94 28 203 27
99 -1 102 0 119 25 13 20 19 23 30 14 10 -9 22 -8 47 3 18 8 41 17 51 21 20 6
44 52 33 64 -4 4 -13 -1 -21 -11 -11 -16 -13 -14 -19 15 -4 21 -2 34 5 37 11
3 34 23 102 84 16 15 34 27 38 27 5 0 9 7 9 15 0 9 8 24 18 34 14 16 25 18 63
12 57 -9 144 11 176 40 20 20 26 21 104 10 45 -6 84 -13 87 -16 6 -6 65 25 74
38 5 8 27 7 72 -2 70 -14 74 -13 117 29 14 14 14 16 0 27 -29 21 4 37 85 41
52 3 77 9 81 18 3 8 16 14 28 14 13 0 31 3 40 6 14 6 12 10 -11 25 -15 10 -31
16 -35 13 -16 -10 -19 17 -4 32 10 10 13 24 9 38 -10 35 -19 38 -48 15 -17
-14 -36 -19 -52 -16 -16 3 -28 -1 -31 -9 -4 -11 -10 -10 -29 3 -23 15 -30 15
-87 -2 -34 -9 -72 -21 -85 -26 -13 -5 -34 -9 -47 -9 -14 0 -25 -4 -25 -10 0
-5 -13 -10 -29 -10 -16 0 -34 -6 -40 -13 -18 -22 -88 -50 -107 -43 -20 8 -10
21 27 40 30 14 48 61 31 78 -9 9 -20 10 -40 2 -21 -8 -31 -7 -40 3 -15 16 -85
17 -113 3 -14 -8 -25 -7 -41 5 -32 22 -48 19 -48 -9 0 -13 -7 -27 -15 -30 -13
-4 -14 -10 -5 -26 8 -14 8 -26 0 -40 -13 -25 -92 -65 -144 -73 -21 -3 -46 -12
-55 -20 -9 -8 -23 -16 -31 -19 -26 -9 -18 34 10 63 50 51 57 53 86 30 34 -26
50 -27 64 -1 10 18 7 22 -19 31 -17 6 -31 18 -31 26 0 8 4 12 9 9 5 -3 11 1
14 8 7 19 -18 40 -39 32 -8 -3 -24 -1 -34 4 -19 10 -19 11 -2 31 9 11 31 26
49 34 20 8 31 20 30 32 -1 12 4 17 15 15 13 -2 16 2 11 13 -5 14 0 16 27 13
24 -2 35 2 44 17 6 11 17 24 24 28 6 4 12 15 12 22 0 9 10 15 26 15 26 0 26
-1 19 -55 -4 -34 -3 -55 4 -55 5 0 23 -11 39 -25 19 -15 33 -21 37 -15 8 14
41 13 65 -2 16 -11 22 -9 34 7 9 11 13 28 10 37 -3 11 5 23 23 35 15 10 30 20
33 24 13 16 49 28 55 19 3 -5 17 -10 31 -10 13 0 24 -4 24 -10 0 -18 27 -10
78 23 36 22 50 38 49 52 -1 12 7 24 21 30 12 5 22 18 22 27 0 10 4 18 9 18 4
0 30 19 56 42 l47 42 45 -17 c40 -15 48 -15 80 -2 19 8 46 15 59 15 13 0 24 4
24 9 0 11 29 23 41 16 27 -17 -97 -96 -146 -92 -24 2 -31 -5 -52 -45 -13 -27
-30 -48 -38 -48 -8 0 -15 -4 -15 -9 0 -14 132 -20 160 -7 14 7 32 11 41 9 9
-2 22 3 29 12 16 19 34 20 27 0 -5 -11 -1 -12 19 -5 14 6 29 10 34 10 16 0 -2
-39 -26 -55 -15 -9 -24 -25 -24 -40 0 -18 -8 -28 -25 -35 -13 -5 -30 -18 -37
-30 -7 -11 -21 -20 -31 -20 -13 0 -17 -5 -13 -16 3 -9 6 -23 6 -33 0 -11 18
-26 49 -41 27 -12 52 -31 54 -41 6 -24 35 -35 55 -22 9 5 21 33 28 63 10 43
21 62 62 101 28 27 55 49 59 49 5 0 14 9 20 19 7 11 32 31 57 46 38 22 47 24
70 14 14 -7 26 -16 26 -21 0 -15 47 -8 68 10 22 18 40 82 24 82 -17 0 -1 44
24 66 l24 21 0 317 0 316 -492 -1 c-447 -1 -491 -2 -470 -16 30 -21 28 -27
-15 -67 -47 -43 -125 -58 -165 -32 -22 14 -27 14 -67 -6 -30 -15 -45 -18 -53
-10 -13 13 6 42 28 42 21 0 18 59 -3 67 -9 4 -19 1 -21 -5 -2 -7 -11 -20 -20
-29 -10 -9 -18 -20 -18 -25 -1 -4 -2 -11 -3 -15 0 -4 -6 -2 -13 5 -9 9 -16 8
-30 -5 -16 -15 -21 -15 -28 -3 -12 20 -3 30 27 30 26 0 26 0 7 18 -20 19 -38
20 -269 7 -154 -8 -153 -7 -170 -32 -9 -13 -23 -23 -31 -23 -8 0 -14 -4 -14
-10 0 -17 64 -11 98 10 18 11 37 20 42 20 25 0 -2 -58 -30 -64 -14 -3 -30 -8
-74 -25 -20 -7 -66 8 -66 22 0 4 -7 7 -15 7 -18 0 -19 4 -3 30 10 15 10 22 0
32 -11 11 -15 10 -23 -4 -11 -19 -39 -25 -39 -8 0 6 -7 10 -15 10 -8 0 -15 7
-15 15 0 11 -7 13 -29 9 -19 -4 -38 0 -55 11 -24 16 -34 16 -100 5 -41 -7 -79
-15 -84 -19 -6 -4 -17 -29 -24 -56 -7 -28 -18 -56 -25 -63 -7 -7 -10 -19 -7
-27 6 -15 -1 -15 -58 0 -21 5 -30 2 -40 -14 -17 -27 -28 -27 -28 2 0 12 -3 33
-7 45 -6 26 6 26 -170 4 -40 -5 -80 -15 -90 -23 -9 -8 -14 -9 -10 -3 8 14 -38
28 -56 17 -7 -4 -20 -17 -30 -30 -13 -16 -29 -23 -51 -23 -35 0 -66 -25 -66
-53 0 -9 -7 -17 -15 -17 -8 0 -15 5 -15 10 0 6 -13 4 -30 -5 -16 -8 -36 -15
-44 -15 -19 0 -35 -27 -29 -50 3 -13 -3 -19 -24 -25 -15 -3 -29 -5 -29 -3 -1
2 -11 -5 -22 -15 -20 -18 -21 -18 -43 2 l-22 21 26 20 c28 22 35 44 17 55 -16
10 -80 -15 -80 -31 0 -8 -4 -14 -10 -14 -5 0 -10 7 -10 15 0 24 -44 18 -70
-10 -24 -25 -54 -33 -65 -16 -3 6 -21 4 -45 -4 -38 -13 -40 -13 -59 11 -11 14
-17 33 -14 42 4 13 3 14 -5 3 -7 -9 -11 -10 -17 -2 -3 7 -15 9 -24 6 -52 -16
-75 44 -33 88 14 15 34 27 45 27 13 0 17 5 13 16 -5 12 -1 14 17 9 l22 -6 -24
20 c-25 22 -77 28 -83 10 -2 -7 -12 -7 -32 1 -27 10 -28 12 -12 29 15 16 14
19 -9 41 -18 17 -23 30 -19 47 9 36 -17 29 -43 -12 -30 -45 -29 -54 7 -66 33
-12 39 -35 13 -54 -16 -12 -16 -14 0 -30 17 -16 16 -19 -12 -46 -17 -16 -41
-31 -53 -33 -64 -13 -88 -14 -93 -6 -3 6 -26 10 -50 10 -35 0 -45 4 -50 20 -3
11 -13 20 -21 20 -8 0 -20 14 -25 30 -13 36 -59 44 -59 11 0 -11 -4 -23 -10
-26 -6 -3 -10 -1 -10 4 0 6 -6 11 -14 11 -15 0 -30 45 -21 60 4 6 1 10 -4 10
-6 0 -11 7 -11 15 0 9 -7 18 -15 21 -21 8 -19 31 4 39 10 3 26 14 36 25 18 20
17 20 -153 20 -95 0 -172 -3 -172 -8 0 -4 9 -13 20 -20 25 -16 26 -42 1 -49
-11 -3 -22 -15 -25 -26 -8 -27 -53 -80 -64 -73 -4 2 -30 0 -57 -5 -39 -7 -52
-6 -63 5 -13 12 -18 11 -39 -9 -17 -15 -38 -23 -64 -23 -22 -1 -39 2 -40 6 0
4 -2 17 -5 29 -2 12 2 23 11 27 8 3 15 10 15 16 0 14 -53 13 -68 -2 -9 -9 -12
-9 -12 0 0 7 5 12 10 12 18 0 10 19 -11 25 -17 6 -19 9 -8 16 11 7 11 9 1 9
-21 0 -5 17 21 22 23 4 47 -12 47 -32 0 -5 17 -10 38 -10 32 0 38 3 40 23 1
12 -3 32 -10 45 l-11 22 -694 0 c-609 0 -693 -2 -693 -15 0 -8 -4 -15 -10 -15
-13 0 0 -62 15 -75 18 -15 25 -41 13 -53 -14 -14 44 -52 81 -52 25 0 31 -4 31
-22 0 -23 39 -83 40 -62 0 15 61 44 93 44 18 0 31 -10 45 -33 23 -40 98 -71
129 -53 10 5 36 13 57 16 25 3 43 12 50 25 6 11 12 22 13 24 1 2 18 -8 38 -23
35 -27 47 -66 21 -66 -17 0 -29 -31 -20 -53 3 -9 16 -19 27 -23 12 -4 24 -10
27 -14 9 -12 148 28 169 49 12 12 26 21 32 21 18 0 39 -27 39 -52 0 -31 9 -41
45 -53 36 -12 47 -52 19 -72 -17 -12 -17 -14 1 -33 13 -15 31 -20 66 -20 54 0
69 -19 47 -61 -12 -21 -19 -24 -71 -23 -42 1 -62 -3 -74 -15 -12 -11 -34 -16
-79 -16 -45 0 -67 -5 -81 -17 -25 -23 -29 -22 -60 2 -33 26 -69 26 -76 0 -4
-14 -10 -18 -22 -14 -22 9 -37 -14 -24 -37 7 -14 4 -21 -12 -33 -12 -8 -18
-19 -14 -25 3 -6 -1 -11 -9 -11 -21 0 -29 16 -29 61 0 41 -9 48 -33 24 -16
-16 -98 -11 -121 7 -6 5 -27 6 -46 3 -27 -5 -37 -3 -45 10 -13 24 -77 15 -126
-18 -47 -33 -89 -35 -115 -6 -31 34 -35 38 -67 67 -17 15 -33 33 -35 41 -3 8
-25 17 -49 20 -40 5 -45 9 -50 35 -5 28 -33 48 -56 39 -16 -6 -41 27 -27 35
21 13 2 61 -28 74 -34 15 -37 28 -9 46 12 7 18 17 15 22 -3 6 -2 10 3 10 11 0
3 48 -9 56 -21 12 -54 13 -68 0 -24 -21 -51 -16 -51 9 0 11 5 26 12 33 8 8 9
18 1 34 -22 50 21 90 75 70 50 -19 84 -23 98 -11 23 19 38 4 58 -60 14 -44 24
-60 33 -56 8 2 11 0 8 -5 -10 -16 12 -12 29 6 15 14 15 18 -1 45 -10 16 -22
29 -28 29 -19 0 -38 46 -31 76 3 16 2 35 -3 43 -7 11 -12 9 -22 -10 -7 -13
-13 -28 -14 -34 0 -20 -30 -9 -33 12 -2 12 -11 25 -21 28 -10 3 -26 14 -36 25
-13 15 -31 20 -67 20 -27 0 -59 5 -70 11 -18 10 -25 8 -41 -12 -11 -13 -28
-23 -38 -21 -22 4 -93 -42 -113 -73 -16 -24 -132 -66 -171 -62 -39 4 -40 46
-1 60 17 6 -14 45 -41 51 -16 4 -50 2 -78 -3 -27 -5 -53 -7 -56 -5 -4 2 -10
20 -13 39 -7 34 -14 39 -62 38 -6 0 -11 5 -11 11 0 6 -1 19 -1 29 -2 16 -102
17 -1957 17 l-1955 0 0 -474z m10883 434 c3 -12 0 -20 -7 -20 -7 0 -21 -9 -31
-20 -14 -16 -21 -17 -32 -8 -10 8 -17 8 -25 0 -9 -9 -7 -17 7 -32 10 -11 16
-21 14 -23 -2 -1 -25 -19 -50 -40 -43 -33 -54 -37 -125 -42 -95 -7 -114 -12
-114 -31 0 -8 -9 -23 -20 -34 -11 -11 -20 -24 -20 -28 0 -11 -55 -42 -75 -42
-9 0 -19 9 -22 20 -3 11 -11 20 -18 20 -19 0 -5 49 19 65 12 8 46 19 76 25 30
7 74 25 97 41 23 16 45 29 50 29 4 0 13 10 18 23 9 19 17 22 64 20 60 -3 85
13 86 56 0 22 6 27 35 32 60 11 68 10 73 -11z m-1333 -90 c0 -5 7 -10 15 -10
8 0 15 -5 15 -11 0 -6 7 -8 16 -5 8 3 13 2 10 -2 -2 -4 13 -7 35 -7 35 0 39 2
40 25 2 25 2 25 6 1 4 -18 10 -22 29 -18 13 2 21 1 19 -4 -3 -4 -1 -10 5 -14
20 -12 9 -33 -30 -59 -22 -14 -48 -26 -59 -26 -11 0 -22 -4 -25 -9 -7 -11 -77
8 -88 23 -4 6 -4 14 -1 19 2 4 2 15 -1 24 -5 13 -10 11 -30 -10 -13 -14 -27
-40 -31 -57 -4 -16 -13 -30 -21 -30 -8 0 -14 -4 -14 -9 0 -5 -18 -11 -40 -13
-22 -2 -40 -1 -40 3 0 4 -10 9 -22 13 -28 7 -50 40 -41 62 5 14 17 16 83 10
42 -3 79 -4 82 0 4 3 0 21 -8 40 -14 34 -14 34 18 54 35 21 78 27 78 10z
m-3777 -49 c15 -6 27 -17 27 -24 0 -9 15 -17 40 -21 40 -6 40 -6 40 -51 0 -25
5 -45 10 -45 17 0 11 -38 -7 -44 -24 -7 -75 -2 -91 8 -10 6 -10 11 -1 22 9 11
8 14 -7 14 -16 0 -17 2 -4 10 25 16 -7 31 -63 28 -48 -2 -85 16 -55 27 9 4 13
16 11 33 -3 21 3 32 29 49 17 13 35 18 38 13 3 -5 18 -13 33 -19z m4440 -157
c5 -8 23 -14 43 -14 27 0 37 -5 43 -22 11 -28 -3 -48 -34 -48 -12 0 -37 -15
-56 -33 -19 -18 -42 -36 -51 -40 -19 -7 -25 -37 -8 -37 6 0 10 -3 10 -7 0 -10
-80 -43 -103 -43 -10 0 -20 -6 -23 -14 -3 -8 -13 -17 -22 -20 -9 -3 -37 -17
-62 -32 -25 -14 -65 -32 -90 -41 -25 -8 -52 -21 -60 -28 -10 -9 -20 -11 -32
-4 -31 17 -231 8 -243 -11 -3 -4 -19 -4 -37 -1 -26 6 -33 12 -31 29 2 18 -4
24 -27 29 -17 3 -30 11 -30 19 0 16 46 53 76 60 13 3 26 15 29 25 4 13 16 19
34 19 15 0 32 5 39 12 6 6 26 11 44 11 18 -1 27 1 21 4 -20 7 -15 23 7 23 11
0 20 5 20 12 0 6 3 8 6 5 4 -3 18 3 32 13 13 11 37 20 51 20 15 0 35 6 46 14
11 7 58 26 104 42 62 21 85 26 88 17 8 -22 36 -14 98 28 62 41 100 45 118 13z
m-1688 -220 c11 -8 34 -14 52 -14 18 0 36 -6 40 -15 6 -10 26 -16 61 -16 33
-1 52 -6 52 -14 0 -15 -42 -65 -55 -65 -6 0 -11 -21 -13 -47 -1 -27 -10 -55
-19 -66 -15 -16 -15 -19 -3 -27 27 -17 43 -11 82 32 35 39 42 42 98 46 55 4
60 3 53 -13 -5 -13 -3 -16 6 -10 10 6 11 2 6 -16 -3 -13 -9 -32 -11 -41 -6
-21 15 -23 61 -7 19 7 47 9 69 5 33 -6 37 -10 32 -29 -18 -62 -18 -74 -1 -81
10 -4 25 0 34 7 33 29 91 30 91 2 0 -14 -45 -29 -61 -20 -5 4 -19 3 -31 -1
-19 -6 -20 -8 -6 -18 76 -56 92 -76 63 -76 -8 0 -15 -5 -15 -10 0 -6 -11 -22
-24 -35 -24 -24 -24 -25 -6 -35 11 -6 17 -16 14 -25 -4 -8 1 -26 10 -40 9 -13
16 -41 16 -60 0 -35 2 -36 28 -31 15 3 33 2 41 -3 10 -6 6 -13 -18 -27 -17
-10 -30 -21 -28 -24 2 -3 11 -22 20 -42 10 -21 22 -38 28 -38 6 0 4 -7 -5 -15
-8 -8 -24 -15 -35 -15 -12 0 -21 -4 -21 -9 0 -5 -21 -13 -47 -17 -44 -8 -50
-13 -69 -54 -23 -48 -15 -44 -141 -66 -26 -4 -43 -12 -43 -20 0 -9 -11 -14
-27 -14 -16 0 -36 -7 -46 -15 -12 -8 -31 -11 -53 -8 -29 5 -38 2 -51 -17 -12
-17 -17 -19 -24 -9 -7 11 -9 10 -9 -3 0 -11 -5 -15 -14 -12 -8 3 -12 12 -10
19 3 7 1 16 -5 20 -6 3 -11 -2 -11 -12 0 -11 -6 -27 -12 -36 -12 -15 -16 -15
-42 -2 -36 19 -33 20 -41 -14 -10 -45 -29 -57 -54 -32 -12 12 -32 21 -46 21
-29 0 -72 24 -97 54 -12 15 -26 20 -47 18 -29 -3 -31 -1 -31 31 0 22 8 40 23
54 33 30 102 63 134 63 34 0 58 14 49 28 -4 6 -20 7 -42 2 -20 -5 -51 -6 -69
-4 -27 3 -37 0 -45 -16 -6 -11 -15 -18 -20 -15 -5 3 -11 1 -15 -5 -7 -11 -88
-50 -104 -50 -6 0 -18 -14 -27 -32 -18 -34 -61 -74 -106 -98 -37 -20 -26 -31
23 -24 30 5 40 3 45 -9 8 -22 -13 -57 -36 -57 -10 0 -22 -5 -25 -10 -4 -6 -23
-7 -47 -4 -33 6 -44 4 -54 -11 -13 -17 -15 -17 -31 -2 -14 11 -32 14 -73 11
-30 -3 -80 -6 -110 -9 -30 -2 -56 -4 -57 -6 -2 -1 -6 -2 -10 -3 -60 -13 -64
-16 -60 -52 5 -46 21 -62 47 -46 11 6 33 12 50 12 22 0 33 6 41 23 6 12 25 27
45 33 32 10 36 9 55 -17 l20 -28 -21 -11 c-11 -6 -20 -20 -20 -32 0 -25 -95
-116 -130 -123 -14 -4 -41 -11 -62 -17 -20 -6 -48 -7 -65 -3 -45 13 -66 11
-94 -7 -14 -9 -45 -25 -70 -34 -24 -10 -56 -31 -71 -48 l-27 -31 -10 28 c-6
15 -18 27 -28 27 -30 0 -97 27 -107 43 -7 10 -4 23 7 41 28 42 22 70 -18 86
-27 11 -32 16 -24 27 7 7 18 13 27 13 10 0 6 8 -13 26 -20 19 -25 28 -16 37 6
6 11 17 11 24 0 23 -38 14 -65 -14 l-26 -28 3 37 c4 53 -9 62 -63 43 -43 -16
-44 -15 -62 7 -11 13 -38 28 -60 33 -29 8 -43 17 -45 30 -6 30 -19 40 -36 26
-8 -7 -20 -10 -26 -6 -16 10 -177 -73 -229 -117 -51 -44 -73 -47 -91 -13 -12
23 -11 29 9 55 l22 30 -28 0 -28 1 25 14 c14 8 36 14 49 15 23 0 61 25 61 40
0 4 -13 5 -29 2 -15 -2 -41 3 -57 11 -16 8 -66 17 -111 21 -67 5 -84 4 -95 -9
-39 -47 -40 -47 -92 -40 -55 7 -68 18 -60 52 3 12 7 41 8 65 3 41 4 43 30 40
36 -4 66 23 66 59 0 22 11 36 47 64 31 23 53 33 65 29 10 -3 30 1 43 10 31 20
74 20 102 1 20 -14 24 -13 49 10 17 16 34 23 43 19 32 -13 84 -22 97 -17 8 3
14 0 14 -6 0 -8 7 -7 23 3 36 23 109 29 143 11 33 -17 74 -20 74 -4 0 5 16 16
34 24 19 8 39 21 43 28 22 37 112 50 144 21 12 -10 42 -17 89 -20 67 -3 71 -2
80 20 5 13 14 27 19 31 35 21 -15 79 -71 81 -15 1 -37 2 -48 3 -11 0 -20 8
-20 16 0 8 -8 16 -17 16 -10 1 -22 2 -28 4 -5 1 -16 3 -22 3 -7 1 -13 9 -13
17 0 8 -9 15 -21 15 -11 0 -29 5 -41 11 -16 9 -24 7 -38 -8 -33 -34 -56 -49
-68 -45 -7 2 -20 1 -30 -4 -41 -17 -87 -12 -114 14 -16 15 -41 26 -61 27 -19
1 -38 5 -43 8 -5 3 -20 -3 -33 -12 -22 -17 -25 -17 -42 -2 -11 8 -19 21 -19
27 0 18 -28 25 -34 8 -8 -20 -29 -17 -44 6 -19 31 -34 14 -27 -31 6 -35 5 -39
-15 -39 -12 0 -31 -12 -42 -26 -13 -16 -24 -22 -30 -16 -6 6 -20 5 -37 -4 -15
-7 -45 -16 -67 -20 -21 -3 -43 -8 -48 -12 -5 -3 -51 -6 -102 -8 -52 -1 -103
-6 -115 -9 -21 -7 -22 -14 -4 -72 6 -19 4 -23 -14 -23 -36 0 -63 19 -56 39 4
15 1 17 -20 13 -14 -2 -25 -8 -25 -13 0 -22 -61 29 -69 58 -13 48 -42 72 -90
78 -33 4 -49 1 -62 -11 -11 -10 -19 -14 -19 -9 0 4 -15 -4 -33 -18 -98 -74
-221 -72 -175 3 11 18 10 23 -4 34 -21 15 -14 26 16 26 12 0 30 6 41 14 11 7
35 17 53 21 19 4 42 19 54 36 12 16 27 29 34 29 6 0 15 11 18 24 4 18 11 22
29 19 26 -5 37 15 37 68 0 28 40 55 115 79 22 7 46 22 53 32 12 16 21 18 60
12 26 -4 59 -13 74 -20 15 -8 41 -14 58 -14 28 0 29 -2 18 -20 -11 -17 -10
-22 2 -30 34 -22 63 -22 107 -1 42 20 46 21 57 5 13 -17 38 -16 92 1 30 9 79
-40 87 -87 4 -29 3 -36 -9 -31 -8 3 -14 0 -14 -6 0 -10 13 -15 25 -8 2 1 10
-7 18 -17 13 -18 14 -18 31 5 44 62 70 106 76 129 4 16 16 27 36 32 17 4 39
17 49 28 10 11 26 20 36 20 10 0 22 6 26 14 13 22 49 36 91 36 22 0 58 7 81
15 44 15 108 23 263 29 58 3 108 10 125 19 26 14 31 13 73 -10 68 -38 81 -49
102 -84 25 -41 18 -99 -12 -99 -13 0 -20 -7 -20 -20 0 -16 7 -20 30 -20 17 0
30 3 30 8 0 4 16 16 36 27 28 15 37 16 43 6 6 -9 19 -11 37 -7 16 3 51 7 77 8
34 1 46 5 43 14 -3 7 5 16 17 20 12 3 32 16 44 27 21 19 27 20 90 7 63 -11 71
-11 103 7 19 11 35 26 36 34 0 8 2 21 2 30 1 9 35 32 80 54 42 22 90 52 105
69 15 16 38 30 50 32 12 1 25 3 29 3 4 1 5 7 3 14 -4 9 4 11 27 9 86 -8 103
-7 103 8 0 26 126 37 160 14z m-6760 -174 c0 -8 4 -20 8 -27 4 -6 3 -14 -3
-18 -21 -13 -10 -51 19 -68 27 -16 29 -21 28 -75 -2 -54 -3 -57 -27 -57 -21 0
-24 4 -24 32 1 28 -3 33 -30 39 -37 8 -56 21 -56 40 0 8 6 14 13 14 6 1 22 9
35 19 25 21 21 46 -10 71 -27 22 -14 52 21 48 15 -2 26 -9 26 -18z m855 -619
c0 -11 5 -23 10 -26 6 -3 10 -13 10 -20 0 -20 -27 -7 -33 16 -8 29 -29 23 -27
-8 1 -16 1 -30 0 -33 -11 -33 -8 -50 10 -50 13 0 21 -9 25 -25 3 -14 7 -36 10
-49 3 -14 11 -31 19 -39 9 -9 11 -18 5 -28 -8 -12 -12 -11 -24 5 -16 21 -45
15 -45 -9 0 -8 -5 -15 -12 -15 -6 0 -23 -12 -38 -27 -25 -25 -26 -27 -10 -43
18 -18 86 -25 109 -11 7 5 14 21 14 35 0 15 4 29 9 32 14 9 50 -28 39 -39 -6
-6 -7 -22 -4 -37 5 -29 -20 -90 -37 -90 -6 0 -10 -29 -9 -69 1 -58 -2 -73 -20
-92 -11 -13 -21 -28 -21 -33 0 -6 -22 -31 -50 -55 l-50 -44 26 -23 c29 -28 23
-48 -12 -40 -13 4 -24 3 -24 -2 0 -15 31 -52 40 -47 19 12 103 12 138 -1 37
-12 41 -22 27 -56 -4 -10 -3 -18 1 -18 19 0 32 17 40 54 5 21 18 44 29 50 10
6 26 17 34 25 13 11 12 16 -10 32 -13 11 -37 22 -52 26 -18 3 -32 15 -38 30
-12 32 -13 30 16 37 34 9 53 46 30 58 -15 9 -15 12 5 33 19 20 20 24 6 38 -20
20 -20 34 0 72 8 16 13 38 10 49 -3 10 -2 32 1 47 4 21 13 30 36 35 17 3 49
16 71 27 22 12 58 21 80 21 34 1 41 5 46 26 4 19 15 26 45 32 29 6 41 5 44 -4
2 -6 14 -22 26 -34 23 -23 17 -44 -13 -44 -25 0 -6 -25 27 -34 27 -8 35 -6 43
7 7 14 18 16 51 11 23 -4 54 -13 68 -20 34 -17 95 -87 80 -92 -6 -2 -11 -8
-11 -13 0 -6 5 -7 10 -4 6 3 14 -5 20 -19 5 -14 23 -32 39 -41 23 -12 30 -21
27 -38 -3 -12 -5 -24 -5 -26 -1 -2 -9 5 -18 15 -15 16 -29 18 -82 16 -46 -2
-68 -8 -77 -20 -8 -9 -14 -13 -14 -8 0 5 -8 2 -17 -6 -10 -8 -38 -16 -63 -17
-64 -3 -77 -8 -84 -36 -6 -24 -20 -30 -61 -26 -19 2 -75 -17 -75 -26 0 -2 7
-11 15 -19 21 -21 19 -26 -19 -51 -20 -13 -35 -32 -39 -50 -3 -15 -9 -36 -12
-45 -11 -28 30 -22 60 8 l26 26 40 -17 c30 -14 42 -16 51 -7 15 15 42 15 91 1
30 -8 37 -14 32 -29 -3 -10 -1 -22 6 -25 8 -6 8 -10 -2 -16 -23 -14 -6 -19 70
-21 54 -1 75 2 82 13 8 12 11 11 20 -3 11 -19 64 -25 74 -8 3 6 -1 10 -9 10
-9 0 -16 6 -16 14 0 18 -111 21 -122 3 -4 -7 -10 -3 -16 13 -13 33 2 50 42 51
17 1 42 4 56 9 17 5 35 1 57 -12 20 -12 41 -17 53 -13 25 8 26 21 3 34 -16 9
-15 11 7 12 47 4 85 -3 108 -17 25 -16 30 -44 7 -44 -8 0 -12 -6 -9 -13 3 -8
0 -26 -6 -41 -10 -28 -10 -28 23 -22 41 8 67 -1 67 -20 0 -8 20 -23 44 -34 25
-10 47 -27 51 -39 6 -19 54 -61 70 -61 4 0 5 6 2 13 -4 10 15 19 65 32 60 15
77 16 125 6 34 -8 80 -10 123 -6 60 6 69 10 72 28 3 20 11 23 88 28 47 3 94
10 104 16 47 26 166 -58 166 -118 0 -15 -7 -32 -15 -37 -14 -7 -14 -11 0 -38
8 -16 15 -33 15 -39 1 -15 33 -50 53 -58 12 -4 17 -17 17 -44 0 -25 -3 -33 -9
-24 -12 19 -93 26 -122 10 -13 -7 -33 -13 -43 -13 -27 -1 -31 -23 -7 -31 12
-3 21 -10 21 -15 0 -4 17 -6 38 -3 34 4 40 1 75 -41 21 -25 35 -51 32 -56 -9
-15 -36 -12 -55 5 -26 23 -50 9 -50 -30 0 -27 -3 -32 -17 -29 -10 3 -30 -6
-45 -21 -26 -24 -66 -36 -53 -15 3 6 -4 10 -18 10 -33 0 -40 11 -18 27 24 16
17 53 -10 53 -22 0 -59 29 -59 47 0 20 30 15 49 -9 20 -24 44 -17 34 10 -4 9
-21 31 -38 48 -25 23 -40 30 -66 29 -22 -1 -45 7 -66 22 -39 28 -70 29 -98 3
-36 -34 -109 -67 -130 -60 -11 4 -28 3 -37 -1 -9 -5 -23 -8 -30 -7 -9 2 -14
-12 -15 -45 -1 -35 -10 -62 -34 -98 -17 -27 -29 -53 -25 -56 8 -9 84 17 97 34
6 7 22 13 34 13 14 0 25 7 28 20 3 11 11 20 17 20 13 0 5 -51 -10 -60 -7 -4
-14 -62 -11 -97 1 -18 28 -16 35 2 7 20 38 20 34 -1 -2 -8 -16 -23 -31 -32
-27 -16 -29 -16 -38 1 -6 9 -16 17 -24 17 -7 0 -15 5 -17 11 -3 9 -9 9 -26 0
-13 -7 -19 -17 -16 -26 4 -10 -4 -18 -22 -25 -16 -6 -38 -14 -49 -19 -27 -12
-143 -13 -150 -1 -4 6 8 10 25 10 29 0 100 42 100 60 0 4 -13 7 -30 8 -16 0
-34 3 -40 7 -16 10 -11 25 9 25 32 0 43 23 26 56 -15 30 -7 44 28 44 9 0 17 3
18 8 0 4 2 20 4 37 7 52 -28 72 -63 34 -17 -17 -20 -18 -25 -5 -15 39 -172 -9
-184 -55 -3 -12 -17 -22 -34 -26 -15 -3 -36 -14 -45 -24 -9 -11 -21 -19 -26
-19 -15 0 -8 25 12 43 11 9 20 21 20 27 0 16 -43 29 -57 18 -7 -5 -17 -7 -23
-3 -5 3 -10 1 -10 -4 0 -6 -9 -11 -21 -11 -12 0 -37 -16 -57 -36 -30 -30 -43
-36 -79 -37 -46 0 -55 -7 -61 -46 -2 -14 -24 -45 -50 -70 -26 -25 -55 -58 -65
-74 -24 -38 -41 -35 -33 6 4 17 11 34 16 35 6 2 10 11 10 20 0 9 10 26 22 39
12 13 19 26 16 29 -8 8 -66 17 -103 17 -16 0 -24 2 -17 4 20 7 14 20 -13 27
-14 4 -25 11 -25 16 0 6 11 10 25 10 30 0 33 16 5 25 -11 3 -20 12 -20 20 0
18 -73 30 -99 15 -14 -7 -21 -7 -21 0 0 5 -11 10 -25 10 -18 0 -25 -5 -25 -20
0 -24 -8 -25 -38 -4 -18 12 -20 19 -12 35 8 15 7 21 -4 25 -28 11 -61 0 -64
-22 -2 -17 -12 -23 -37 -26 -30 -3 -36 0 -47 26 -9 22 -9 31 -1 33 8 3 6 11
-5 23 -9 10 -23 26 -30 35 -11 12 -17 13 -28 4 -12 -10 -11 -14 6 -29 11 -10
20 -22 20 -29 0 -6 5 -11 11 -11 8 0 8 -5 -1 -15 -15 -18 -30 -11 -30 16 0 15
-7 19 -34 19 -44 0 -66 -9 -66 -25 0 -29 -154 1 -175 34 -3 6 -25 13 -49 16
-33 5 -53 2 -84 -14 -30 -15 -52 -19 -87 -16 -61 6 -64 9 -71 56 -4 21 -10 39
-14 39 -4 0 -19 11 -34 25 -15 14 -34 26 -42 26 -38 4 -54 15 -54 39 0 10 -5
20 -11 22 -14 5 0 38 16 38 6 0 20 9 30 20 10 11 29 20 43 20 23 0 24 3 19 40
-3 22 -1 43 4 46 5 3 9 18 9 34 0 35 21 50 70 50 31 0 44 41 19 62 -19 17 -27
44 -9 33 6 -3 19 -3 31 0 15 5 17 10 9 20 -6 7 -8 20 -4 29 4 10 1 16 -7 16
-8 1 -32 16 -54 35 -38 32 -39 36 -28 64 11 30 10 31 -24 37 -23 4 -33 11 -29
20 3 8 -4 18 -15 24 -26 15 -15 30 23 30 18 0 36 7 44 18 11 15 8 21 -18 49
-33 34 -31 61 3 43 11 -6 16 -16 13 -22 -5 -8 -1 -9 12 -4 10 4 34 10 52 13
17 3 32 9 32 13 0 14 -30 20 -92 20 -43 0 -59 3 -56 13 3 6 14 13 26 15 28 4
29 22 2 22 -25 0 -62 57 -54 82 4 14 0 18 -20 18 -35 0 -59 26 -46 51 8 14 6
25 -6 44 -16 25 -16 25 14 25 25 0 29 3 25 20 -6 22 -36 44 -75 54 -29 7 -39
26 -13 26 8 0 15 -4 15 -9 0 -4 20 -11 45 -14 25 -2 55 -13 65 -22 16 -15 22
-16 35 -5 9 7 14 19 11 26 -4 10 1 11 17 5 27 -10 35 -41 13 -53 -9 -5 -13
-14 -10 -20 5 -7 -6 -9 -30 -6 -29 3 -36 1 -34 -11 4 -21 58 -24 79 -5 12 11
25 13 41 9 23 -8 23 -8 -2 13 -22 19 -23 21 -7 22 11 0 32 -13 47 -30 15 -16
35 -30 44 -30 18 0 21 -16 5 -26 -7 -4 -7 -10 -1 -16 7 -7 20 -3 41 11 29 21
32 21 55 6 14 -9 28 -25 31 -36 4 -10 10 -19 15 -19 5 0 14 -16 21 -35 10 -26
19 -35 35 -35 13 0 26 -4 29 -10 3 -5 15 -10 26 -10 11 0 41 -11 67 -24 52
-26 112 -42 112 -29 0 18 -19 35 -31 29 -8 -4 -5 0 7 9 46 34 -13 115 -83 115
-26 0 -34 -4 -30 -14 8 -19 -20 -43 -34 -29 -7 7 -5 14 6 23 8 7 15 22 15 33
0 11 8 29 17 39 10 11 17 36 18 56 0 29 5 39 25 49 25 13 44 62 34 94 -2 9
-23 20 -52 26 -46 9 -46 10 -17 17 17 4 37 10 45 13 8 4 19 5 23 4 4 0 21 6
37 14 17 9 30 12 31 8 0 -5 4 2 9 15 12 28 50 30 50 3z m1975 -259 c15 -10 31
-72 27 -99 -2 -14 -10 -23 -21 -23 -10 0 -30 -9 -44 -20 -16 -13 -38 -20 -59
-19 -18 2 -43 -3 -54 -9 -12 -6 -35 -10 -51 -9 -23 2 -29 6 -25 20 3 10 15 23
29 28 26 9 46 50 37 74 -7 17 11 21 21 4 9 -13 47 -28 58 -22 5 3 0 11 -10 18
-17 13 -16 14 10 24 16 6 33 11 38 11 5 0 9 7 9 15 0 16 18 20 35 7z m3238
-549 c5 -7 26 -13 48 -13 39 0 54 -15 22 -23 -10 -2 -3 -4 15 -4 17 0 32 4 32
9 0 4 5 8 11 8 6 0 9 -14 7 -32 -2 -21 -9 -32 -21 -34 -10 -1 -36 -14 -58 -28
-21 -14 -43 -26 -49 -26 -6 0 -22 -7 -35 -16 -14 -9 -25 -12 -25 -7 0 5 -15 7
-33 5 -27 -3 -39 2 -65 29 -37 37 -38 45 -16 70 15 17 15 19 -10 30 -21 10
-26 19 -26 49 0 41 22 81 34 61 6 -9 11 -9 22 0 8 6 27 9 43 6 17 -4 36 0 47
8 17 12 20 10 34 -33 8 -26 19 -53 23 -59z m-3912 -109 c14 -8 53 -94 46 -100
-4 -4 -14 -1 -23 6 -13 11 -17 11 -24 0 -6 -10 -12 -11 -22 -3 -7 6 -46 11
-86 12 -41 1 -78 4 -83 7 -14 8 -1 24 15 18 10 -4 12 2 9 20 -4 19 -1 26 11
26 9 0 16 4 16 9 0 25 103 29 141 5z m-2454 -5 c61 -25 113 -53 113 -61 0 -11
-18 -10 -25 2 -4 7 -14 5 -28 -5 -12 -8 -29 -15 -39 -15 -10 0 -18 -4 -18 -10
0 -5 3 -10 8 -10 4 0 13 -14 20 -30 8 -17 18 -27 24 -24 17 11 -2 -36 -23 -57
-22 -22 -59 -25 -59 -5 0 8 -6 16 -14 19 -22 9 -24 42 -5 82 14 29 16 42 8 52
-6 7 -15 13 -20 13 -12 0 -49 38 -49 50 0 14 72 13 107 -1z m240 -206 c31 -31
40 -48 36 -63 -8 -29 -24 -34 -56 -17 -18 9 -41 12 -70 7 -50 -7 -73 11 -55
44 5 10 7 21 3 24 -4 4 -10 2 -12 -5 -2 -7 -10 -10 -18 -7 -16 6 -9 34 13 50
8 6 37 10 66 10 46 -1 55 -5 93 -43z m5616 -143 c4 0 26 -9 50 -19 23 -11 49
-21 57 -23 26 -8 -20 -25 -85 -32 l-60 -6 -14 32 -15 33 -8 -33 c-5 -17 -13
-32 -18 -32 -4 0 -22 -14 -40 -31 -29 -29 -32 -30 -49 -15 -10 9 -23 16 -31
16 -14 0 -39 29 -40 46 0 21 39 52 60 47 12 -3 28 1 39 11 15 13 23 14 50 5
29 -10 34 -9 48 10 14 20 17 21 32 7 10 -9 21 -16 24 -16z m857 -135 c7 -8 10
-22 6 -31 -3 -8 1 -29 10 -46 14 -27 14 -31 -2 -49 -9 -10 -32 -24 -50 -31
-20 -7 -44 -28 -59 -50 -14 -21 -33 -38 -43 -38 -9 0 -38 -8 -64 -17 -39 -14
-51 -15 -71 -4 -35 19 -234 16 -266 -4 -17 -10 -59 21 -63 47 -2 14 -15 29
-35 38 -22 10 -33 22 -33 37 0 12 -4 23 -9 25 -5 2 -7 15 -4 31 4 19 11 27 27
27 11 0 34 7 50 15 15 8 36 15 45 15 9 0 23 6 29 12 8 8 37 12 85 10 60 -3 75
-7 89 -25 16 -20 19 -21 50 -8 18 8 57 16 87 17 29 2 59 8 64 13 6 6 26 11 43
11 18 0 36 5 39 10 9 15 61 12 75 -5z m-6800 -69 c0 -8 7 -19 16 -27 10 -8 14
-23 12 -41 -6 -37 23 -35 32 2 6 25 50 43 50 21 0 -6 7 -11 15 -11 8 0 15 -4
15 -9 0 -5 2 -15 5 -23 4 -9 -4 -13 -26 -14 -18 -1 -36 -8 -41 -18 -12 -22
-45 -20 -60 4 -13 21 -38 27 -38 10 0 -5 -10 -8 -22 -6 -18 2 -23 10 -24 34 0
17 -3 35 -7 38 -13 13 -7 22 18 28 14 4 28 13 31 21 7 17 24 10 24 -9z m5436
-101 c-16 -24 -16 -26 0 -32 9 -3 32 -1 51 6 40 15 84 7 108 -19 14 -15 27
-18 63 -15 37 4 50 1 68 -16 13 -12 30 -19 38 -16 9 4 17 1 17 -6 1 -7 2 -19
3 -27 1 -10 15 -17 41 -20 l40 -5 -37 -22 c-21 -12 -38 -27 -38 -32 0 -6 -6
-8 -14 -5 -8 3 -17 -2 -20 -13 -4 -10 -25 -27 -49 -37 -23 -11 -48 -28 -55
-38 -20 -28 -65 -20 -72 12 -3 14 -15 30 -27 35 -11 6 -29 17 -38 25 -10 8
-28 13 -41 12 -18 -3 -24 2 -25 17 -2 24 -3 30 -13 54 -5 10 -3 23 5 33 18 22
-11 48 -55 46 -19 -1 -39 5 -46 13 -8 10 -25 12 -60 8 -27 -3 -57 -2 -67 2
-32 13 84 35 120 22 27 -9 32 -7 49 16 12 17 29 27 45 27 25 0 25 -1 9 -25z
m-4355 -137 c24 -45 19 -64 -20 -78 -20 -7 -39 -17 -42 -22 -3 -5 -22 -11 -43
-15 -47 -7 -84 11 -88 45 -4 35 -40 46 -69 21 -27 -24 -30 -21 -21 17 10 35
48 44 85 19 22 -14 29 -14 78 1 30 9 61 20 69 24 25 14 39 11 51 -12z m5390
-68 c5 0 9 -7 9 -16 0 -11 5 -14 16 -10 25 9 83 -40 77 -65 -3 -12 0 -24 6
-28 7 -4 13 -20 15 -35 1 -14 10 -32 19 -39 8 -6 17 -21 19 -31 2 -15 -5 -22
-32 -30 -19 -5 -37 -12 -40 -16 -22 -26 -65 -41 -105 -36 -25 2 -48 7 -53 10
-4 2 -25 1 -45 -4 -48 -10 -74 -3 -80 22 -5 16 -9 18 -26 8 -12 -6 -21 -8 -21
-4 0 4 -9 -1 -20 -11 -11 -10 -20 -13 -20 -7 0 8 -20 12 -60 11 -66 -2 -76 2
-66 27 4 11 12 14 24 9 9 -5 28 -8 42 -9 22 -1 25 3 22 31 -2 17 1 34 7 38 15
9 14 21 -5 39 -19 20 -10 36 22 36 13 0 32 9 41 20 10 11 25 20 35 20 9 0 21
6 25 14 13 21 72 48 93 41 11 -4 30 1 42 9 13 9 29 14 36 11 8 -3 18 -5 23 -5z
m-721 -185 c6 -19 9 -44 5 -55 -8 -24 17 -27 55 -5 14 8 40 14 58 15 17 0 32
5 32 10 0 16 27 12 34 -5 4 -10 -1 -15 -14 -15 -12 0 -20 -7 -20 -16 0 -12 6
-15 25 -10 28 7 65 -12 65 -32 0 -10 -17 -13 -67 -11 -38 2 -87 0 -110 -5 -36
-7 -42 -5 -48 13 -7 23 -9 24 -42 15 -14 -4 -23 -14 -23 -26 0 -15 -6 -19 -27
-16 -22 2 -28 8 -26 26 3 20 0 22 -25 16 -15 -4 -29 -10 -32 -13 -3 -3 -16 -7
-30 -9 -14 -2 -29 -9 -35 -15 -13 -16 -62 -47 -73 -47 -5 0 -15 11 -22 25 -7
13 -17 22 -22 19 -4 -3 -12 6 -18 20 -7 19 -17 26 -35 26 -40 0 -29 15 20 26
49 11 73 1 54 -23 -13 -15 -4 -46 13 -41 15 5 49 69 42 80 -3 5 -13 3 -21 -4
-13 -10 -14 -8 -11 12 1 14 8 25 13 25 6 1 21 7 33 14 13 7 35 10 48 7 14 -4
37 0 54 9 27 14 30 14 39 -2 9 -17 11 -17 38 4 41 32 60 29 73 -12z"/>
<path d="M8236 6516 c-74 -40 -97 -86 -44 -86 12 0 29 -7 39 -16 15 -13 16
-20 6 -41 -8 -19 -8 -29 2 -45 7 -11 10 -23 7 -26 -3 -3 -6 -2 -6 3 0 4 -7 2
-15 -5 -12 -10 -16 -9 -21 3 -3 9 -3 20 0 26 9 14 -4 41 -20 41 -8 0 -14 -8
-14 -19 0 -10 -17 -30 -38 -45 -64 -44 -105 -112 -75 -123 28 -11 -15 -33 -63
-33 -58 0 -72 -7 -67 -33 4 -21 1 -22 -34 -19 -32 3 -44 -2 -71 -27 -35 -34
-41 -58 -15 -68 10 -4 24 3 39 20 13 15 26 27 29 27 4 0 18 9 32 20 19 15 30
17 43 10 35 -18 106 -11 151 15 24 14 58 25 75 25 20 0 34 6 38 16 11 28 6 44
-11 45 -14 0 -15 2 -3 6 8 4 20 12 25 19 6 7 21 14 35 16 18 2 26 10 28 28 9
73 60 120 157 145 30 7 41 16 43 33 2 12 14 30 28 38 13 9 24 20 24 23 0 14
-67 29 -84 19 -10 -5 -24 -7 -32 -4 -8 3 -13 2 -9 -3 19 -32 -66 -1 -95 35
-16 18 -14 18 -84 -20z"/>
<path d="M7476 5953 c-21 -16 -55 -44 -76 -63 -38 -34 -39 -37 -46 -125 -4
-52 -13 -100 -22 -113 -13 -20 -13 -25 -1 -33 19 -12 46 -11 54 1 3 6 17 10
31 10 13 0 24 -4 24 -10 0 -5 6 -10 14 -10 8 0 23 -16 33 -37 16 -32 23 -36
58 -38 24 -2 47 3 57 12 9 8 21 12 27 9 5 -4 15 2 20 11 10 17 12 17 25 1 13
-18 36 -24 36 -10 0 4 14 13 30 19 40 15 38 33 -3 33 -19 0 -37 3 -41 8 -4 4
-11 7 -14 8 -4 0 -15 4 -24 8 -30 13 -48 -1 -48 -36 l0 -33 -22 33 c-19 27
-28 31 -50 26 -25 -5 -28 -3 -28 22 0 15 -10 38 -22 51 -19 21 -20 26 -8 34
44 29 45 30 32 35 -6 3 -10 9 -7 14 2 4 25 0 50 -9 36 -13 48 -13 63 -3 9 6
27 16 40 22 35 15 26 30 -18 30 -24 0 -40 5 -40 12 0 13 -14 2 -16 -13 -1 -5
-2 -12 -3 -15 0 -3 -10 4 -20 17 -19 23 -19 25 -2 44 10 11 19 37 19 58 1 21
4 42 7 47 4 6 -11 10 -33 10 -27 0 -51 -9 -76 -27z"/>
<path d="M3633 4733 c-9 -7 -24 -13 -34 -13 -23 0 -71 -65 -67 -93 2 -16 -3
-23 -19 -25 -13 -2 -23 1 -23 7 0 6 -7 11 -15 11 -8 0 -15 -7 -15 -15 0 -23
-18 -18 -23 8 -4 22 -4 22 -6 0 0 -12 -10 -24 -21 -28 -11 -3 -20 -11 -20 -16
0 -5 -9 -9 -19 -9 -26 0 -36 -17 -21 -36 10 -11 16 -12 27 -2 24 19 131 21
159 3 23 -15 23 -15 14 11 -15 39 -12 47 15 40 14 -4 25 -2 25 3 0 6 7 8 15 5
9 -4 18 1 21 11 6 14 15 16 45 11 32 -5 37 -3 33 9 -4 9 0 15 9 15 28 0 37 32
19 64 -13 22 -14 30 -4 33 26 10 10 18 -33 18 -24 0 -52 -6 -62 -12z"/>
<path d="M10905 6463 c-11 -3 -22 -9 -25 -13 -3 -3 -14 -12 -25 -17 -11 -7
-19 -22 -20 -39 0 -27 -30 -54 -77 -70 -10 -4 -18 -15 -18 -25 0 -11 -4 -19
-10 -19 -5 0 -10 -5 -10 -11 0 -6 7 -8 16 -5 26 10 34 -3 19 -31 -13 -25 -12
-29 5 -48 21 -22 24 -72 5 -78 -24 -8 -215 0 -213 9 2 5 6 8 10 7 3 -1 9 4 12
12 3 8 1 15 -4 15 -6 0 -10 6 -10 14 0 16 -27 30 -52 27 -10 -1 -18 3 -18 8 0
7 -7 7 -20 -1 -19 -12 -19 -14 -3 -25 9 -7 11 -13 5 -13 -7 0 -12 -11 -12 -25
0 -15 -8 -29 -22 -36 -13 -7 -47 -36 -75 -65 -57 -57 -67 -92 -36 -126 21 -23
14 -29 -47 -39 -28 -4 -74 -22 -103 -39 l-52 -31 45 7 c25 4 59 8 77 8 18 0
35 5 37 13 3 7 15 13 27 13 11 0 32 9 46 20 17 13 41 20 72 20 38 0 60 8 116
44 39 25 75 49 81 55 11 9 30 14 129 30 28 4 55 9 60 11 6 1 20 2 32 1 16 -1
20 -6 16 -22 -5 -19 -4 -20 15 -10 11 6 29 10 39 9 10 -1 33 2 51 7 l32 8 0
68 c0 54 -4 70 -17 78 -17 9 -17 10 0 16 9 4 17 16 17 27 0 16 -4 19 -22 14
-43 -13 -64 -17 -48 -9 69 36 70 38 70 148 0 98 -1 103 -22 109 -25 6 -43 6
-73 -1z"/>
<path d="M0 5906 c0 -126 2 -145 17 -150 21 -8 112 13 134 31 8 7 21 13 28 13
9 0 9 5 1 21 -6 11 -13 30 -16 42 -2 12 -8 23 -14 25 -5 2 -10 8 -10 13 0 6 5
7 11 3 13 -8 11 -1 -16 43 -12 19 -28 33 -40 33 -19 1 -19 1 -2 11 9 6 15 14
12 20 -8 12 -45 12 -45 -1 0 -18 -17 -10 -30 15 -7 14 -17 25 -22 25 -4 0 -8
-65 -8 -144z"/>
<path d="M9605 5658 c-11 -6 -27 -15 -35 -20 -8 -4 -25 -12 -37 -18 -27 -11
-28 -19 -9 -45 8 -12 20 -16 35 -12 24 6 30 -17 6 -27 -8 -3 -15 -12 -15 -20
0 -9 -21 -22 -55 -32 -30 -10 -55 -21 -55 -26 0 -4 -9 -3 -20 4 -29 19 -75
-18 -75 -61 -1 -32 -1 -32 40 -25 22 4 51 7 65 6 58 -4 74 -1 92 15 13 11 15
20 8 28 -8 10 -1 14 27 20 69 12 102 34 109 70 3 20 14 37 27 43 16 8 17 11 6
11 -10 1 -15 10 -15 24 1 18 -5 22 -36 25 -21 2 -38 7 -38 13 0 5 5 9 10 9 6
0 10 7 10 15 0 17 -17 18 -45 3z"/>
<path d="M9115 5408 c-65 -21 -92 -28 -112 -28 -34 0 -83 -30 -89 -55 -8 -32
-4 -37 65 -70 34 -17 59 -34 58 -40 -4 -12 -58 -26 -116 -30 -30 -2 -49 -9
-60 -23 -9 -12 -29 -24 -44 -28 -38 -9 -32 -36 11 -49 29 -8 45 -25 24 -25
-18 0 -83 -78 -70 -83 2 -1 18 -10 36 -21 34 -18 34 -18 64 4 22 16 43 22 80
22 44 -1 48 1 32 12 -17 13 -16 15 12 29 16 8 36 24 45 34 8 10 27 27 42 38
15 11 27 28 27 38 0 31 82 61 147 53 43 -5 55 -3 59 9 4 9 14 15 23 13 9 -1
22 1 29 6 10 6 9 11 -5 22 -16 12 -16 13 -1 8 13 -4 19 1 24 22 10 39 -7 58
-55 65 -45 6 -57 14 -63 43 -2 12 -18 23 -48 32 -51 16 -73 16 -115 2z"/>
<path d="M9070 4925 c-7 -8 -23 -15 -36 -15 -15 0 -44 -20 -79 -54 -55 -53
-56 -54 -85 -39 -37 18 -70 3 -70 -32 0 -17 -6 -25 -17 -25 -36 0 -48 -16 -35
-44 13 -29 43 -34 62 -11 7 8 23 15 35 15 12 0 39 7 58 15 20 8 51 15 69 15
50 0 77 10 71 25 -8 21 55 49 81 37 25 -13 162 -21 195 -13 21 6 23 12 24 66
l1 60 -32 3 c-21 2 -52 -7 -87 -24 l-55 -28 -28 32 c-31 35 -53 40 -72 17z"/>
<path d="M76 4644 c-8 -22 -3 -27 34 -28 16 -1 32 -7 35 -13 5 -15 -14 -17
-49 -3 -28 10 -46 -4 -28 -22 8 -8 -1 -17 -28 -31 -39 -18 -40 -21 -40 -70 0
-47 1 -49 18 -34 10 9 35 19 57 22 35 6 43 3 63 -19 28 -33 28 -36 -7 -36 -23
0 -30 -5 -34 -27 -3 -16 -8 -35 -12 -43 -3 -9 4 -26 15 -38 17 -18 32 -22 84
-22 l63 0 -7 -45 c-6 -38 -4 -48 11 -58 10 -7 23 -25 30 -41 12 -25 11 -30 -9
-45 -21 -15 -21 -19 -9 -61 7 -25 18 -46 25 -46 7 -1 20 -2 30 -3 12 -1 8 -7
-15 -22 -18 -12 -33 -26 -33 -31 0 -7 5 -6 14 1 8 7 25 9 40 5 35 -8 51 7 71
67 16 48 54 89 82 89 27 0 83 32 83 47 0 8 -4 12 -9 9 -19 -12 -19 25 1 43
l20 20 -21 29 c-19 28 -23 29 -63 21 -24 -4 -62 -8 -85 -9 -34 0 -43 4 -48 21
-4 11 -13 18 -20 15 -8 -3 -16 5 -19 20 -4 13 -11 24 -16 24 -15 0 -12 37 5
54 20 19 19 26 -2 26 -14 0 -11 6 11 23 21 17 27 29 23 42 -4 9 -3 23 3 30 7
8 2 28 -16 64 -22 46 -28 52 -47 46 -12 -3 -35 -10 -52 -15 -16 -4 -38 -11
-47 -15 -22 -9 -23 -1 -2 31 9 13 13 28 9 32 -4 4 -10 1 -12 -5 -6 -18 -38
-16 -53 2 -16 20 -36 19 -44 -1z"/>
<path d="M9506 4326 c-4 -16 -8 -18 -18 -8 -17 17 -37 15 -83 -8 -22 -11 -59
-25 -82 -30 -24 -6 -43 -15 -43 -21 0 -6 9 -8 20 -4 13 4 32 0 48 -11 21 -14
46 -17 115 -16 90 1 120 12 110 38 -3 9 9 20 38 34 l44 20 -48 0 c-32 0 -49 5
-53 14 -8 21 -42 15 -48 -8z"/>
<path d="M8820 4256 c0 -9 -11 -21 -25 -26 -14 -5 -25 -14 -25 -19 0 -4 -12
-11 -27 -14 -37 -8 -68 -31 -59 -45 8 -14 86 -6 134 14 18 7 39 11 47 8 22 -9
113 16 119 32 3 8 1 15 -4 15 -15 2 -22 5 -60 21 -19 9 -50 19 -67 23 -27 5
-33 3 -33 -9z"/>
<path d="M4906 3705 c-10 -8 -23 -12 -28 -9 -12 7 -78 -15 -78 -27 0 -5 7 -9
16 -9 21 0 84 -49 84 -66 0 -9 11 -14 30 -14 17 0 30 -5 30 -10 0 -6 11 -16
25 -22 26 -12 33 -32 15 -43 -6 -4 -16 -2 -23 3 -7 6 -28 12 -47 13 -32 3 -35
2 -32 -21 3 -31 8 -35 25 -21 8 6 27 8 43 5 17 -3 41 1 58 10 27 14 32 13 56
-4 30 -21 40 -17 57 23 13 27 46 37 58 17 12 -20 25 -9 25 20 0 28 -37 101
-59 114 -5 3 -17 3 -26 0 -14 -6 -12 -11 11 -35 30 -31 29 -32 -28 -29 -22 1
-38 -3 -38 -9 0 -6 -7 -11 -15 -11 -8 0 -15 3 -15 8 0 4 -10 8 -22 8 -76 5
-116 32 -102 68 7 17 30 22 36 7 2 -5 27 -6 55 -4 62 6 61 23 -2 23 -29 0 -45
5 -49 15 -7 19 -35 19 -60 0z"/>
<path d="M8312 3192 c-9 -9 -25 -16 -35 -14 -9 2 -17 -2 -17 -8 0 -6 -4 -8
-10 -5 -5 3 -10 4 -10 1 0 -2 -2 -10 -5 -18 -4 -10 5 -12 40 -10 36 3 45 1 45
-12 0 -25 71 -22 90 4 8 12 26 20 42 20 42 0 35 25 -12 44 -53 21 -106 20
-128 -2z"/>
<path d="M8661 3196 c-14 -8 -42 -11 -72 -8 -32 3 -49 1 -49 -7 0 -6 5 -11 10
-11 19 0 10 -18 -11 -23 -18 -5 -19 -8 -8 -20 16 -16 55 -13 108 9 19 8 36 12
39 9 3 -3 14 2 24 12 15 13 23 14 43 5 28 -13 32 -30 10 -38 -26 -10 -6 -23
35 -22 28 0 40 5 40 15 0 8 4 12 9 8 14 -8 23 12 16 34 -5 18 -23 25 -115 45
-8 2 -18 -2 -22 -8 -5 -8 -8 -7 -8 2 0 15 -18 15 -49 -2z"/>
<path d="M23 1533 c-20 -4 -23 -10 -23 -54 l0 -50 133 6 c72 3 191 7 263 10
71 2 138 7 147 11 20 7 22 20 5 27 -8 3 -5 6 5 6 10 1 15 6 11 12 -4 6 -20 8
-39 5 -19 -4 -46 0 -68 9 -21 8 -37 12 -37 9 0 -4 -6 -1 -14 5 -13 11 -325 14
-383 4z"/>
</g>
</svg>
