<svg width="23" height="18" viewBox="0 0 23 18" version="1.1" xmlns="http://www.w3.org/2000/svg" xmlns:xlink="http://www.w3.org/1999/xlink">
<title>contact</title>
<desc>Created using Figma</desc>
<g id="Canvas" transform="translate(-10483 -839)">
<g id="contact">
<g id="contact">
<use xlink:href="#path0_fill" transform="translate(10483 839)" fill="#2B2B2B"/>
</g>
</g>
</g>
<defs>
<path id="path0_fill" d="M 21.62 -2.40269e-07L 0.87 -2.40269e-07C 0.638779 0.00300801 0.417883 0.110121 0.255078 0.298176C 0.0922725 0.486231 0.000642 0.740116 2.22045e-16 1.00493L 2.22045e-16 16.9922C 2.22045e-16 17.2595 0.092714 17.5158 0.257746 17.7048C 0.422778 17.8938 0.64661 18 0.88 18L 21.63 18C 21.8617 17.997 22.0829 17.8895 22.2458 17.7008C 22.4087 17.5121 22.5 17.2575 22.5 16.9922L 22.5 1.00493C 22.4993 0.738143 22.4063 0.482542 22.2414 0.294163C 22.0764 0.105784 21.853 -1.31686e-06 21.62 -2.40269e-07ZM 21.37 0.804517L 12.2175 11.3005C 12.0898 11.4468 11.9382 11.5628 11.7713 11.642C 11.6045 11.7212 11.4256 11.7619 11.245 11.7619C 11.0644 11.7619 10.8855 11.7212 10.7187 11.642C 10.5518 11.5628 10.4002 11.4468 10.2725 11.3005L 1.1175 0.804517L 21.37 0.804517ZM 21.62 17.1955L 0.87 17.1955C 0.823587 17.1955 0.779075 17.1744 0.746256 17.1368C 0.713438 17.0992 0.695 17.0482 0.695 16.9951L 0.695 1.46875L 9.7875 11.8731C 10.1787 12.3172 10.708 12.5652 11.2588 12.5625C 11.8097 12.5598 12.3371 12.3067 12.725 11.8588L 21.7975 1.46875L 21.7975 16.9922C 21.7978 17.019 21.7935 17.0456 21.7847 17.0704C 21.7759 17.0953 21.7628 17.1178 21.7463 17.1368C 21.7297 17.1558 21.71 17.1707 21.6883 17.1808C 21.6666 17.1909 21.6434 17.1959 21.62 17.1955Z"/>
</defs>
</svg>
