<svg width="23" height="20" viewBox="0 0 23 20" version="1.1" xmlns="http://www.w3.org/2000/svg" xmlns:xlink="http://www.w3.org/1999/xlink">
<title>portfolio</title>
<desc>Created using Figma</desc>
<g id="Canvas" transform="translate(-10388 -837)">
<g id="portfolio">
<g id="portfolio">
<use xlink:href="#path0_fill" transform="translate(10388 837)" fill="#2B2B2B"/>
</g>
</g>
</g>
<defs>
<path id="path0_fill" d="M 21.0509 3.40798L 15.7037 3.40798L 15.7037 1.00088C 15.7037 0.735427 15.5983 0.480851 15.4106 0.29315C 15.2229 0.105449 14.9683 8.88956e-16 14.7029 0L 7.82185 0C 7.5564 4.44478e-16 7.30182 0.105449 7.11412 0.29315C 6.92642 0.480851 6.82097 0.735427 6.82097 1.00088L 6.82097 3.40798L 1.46879 3.40798C 1.07965 3.4093 0.706822 3.56447 0.431657 3.83964C 0.156491 4.1148 0.00132127 4.48763 2.14159e-06 4.87677L 2.14159e-06 18.5237C -0.000662996 18.9141 0.153631 19.2889 0.42901 19.5657C 0.70439 19.8425 1.07835 19.9987 1.46879 20L 21.0509 20C 21.4414 19.9987 21.8153 19.8425 22.0907 19.5657C 22.3661 19.2889 22.5204 18.9141 22.5197 18.5237L 22.5197 4.87677C 22.5184 4.48763 22.3632 4.1148 22.0881 3.83964C 21.8129 3.56447 21.4401 3.4093 21.0509 3.40798ZM 7.50657 1.00088C 7.50722 0.920116 7.5396 0.84285 7.5967 0.785742C 7.65381 0.728635 7.73108 0.696263 7.81184 0.695609L 14.6929 0.695609C 14.7736 0.696263 14.8509 0.728635 14.908 0.785742C 14.9651 0.84285 14.9975 0.920116 14.9981 1.00088L 14.9981 3.40798L 7.50657 3.40798L 7.50657 1.00088ZM 1.46879 4.1111L 21.0509 4.1111C 21.2531 4.11176 21.4469 4.19237 21.5898 4.33535C 21.7328 4.47833 21.8134 4.67206 21.8141 4.87427L 21.8141 9.62842L 13.722 9.62842L 13.722 9.11047C 13.722 9.0175 13.7036 8.92546 13.6678 8.83966C 13.632 8.75386 13.5795 8.67601 13.5134 8.61062C 13.4473 8.54523 13.3689 8.4936 13.2828 8.45871C 13.1966 8.42382 13.1044 8.40636 13.0114 8.40736L 9.50832 8.40736C 9.32184 8.40736 9.143 8.48144 9.01114 8.61329C 8.87929 8.74515 8.80521 8.92399 8.80521 9.11047L 8.80521 9.63843L 0.703117 9.63843L 0.703117 4.88427C 0.702125 4.7831 0.721198 4.68272 0.759232 4.58896C 0.797266 4.4952 0.853508 4.4099 0.924706 4.338C 0.995904 4.26611 1.08065 4.20904 1.17403 4.17009C 1.26742 4.13114 1.3676 4.11109 1.46879 4.1111ZM 13.0114 9.11047L 13.0114 10.862L 9.50832 10.862L 9.50832 9.11047L 13.0114 9.11047ZM 21.0434 19.2869L 1.46879 19.2869C 1.26615 19.2869 1.07178 19.2066 0.92826 19.0635C 0.78474 18.9205 0.70378 18.7263 0.703117 18.5237L 0.703117 10.3441L 8.7977 10.3441L 8.7977 10.872C 8.79769 10.965 8.81613 11.057 8.85193 11.1428C 8.88773 11.2286 8.9402 11.3065 9.00628 11.3719C 9.07237 11.4373 9.15077 11.4889 9.23695 11.5238C 9.32312 11.5587 9.41536 11.5761 9.50832 11.5751L 13.0114 11.5751C 13.1979 11.5751 13.3767 11.5011 13.5086 11.3692C 13.6404 11.2373 13.7145 11.0585 13.7145 10.872L 13.7145 10.3441L 21.8166 10.3441L 21.8166 18.5237C 21.8166 18.7268 21.7359 18.9215 21.5923 19.0651C 21.4487 19.2087 21.254 19.2894 21.0509 19.2894L 21.0434 19.2869Z"/>
</defs>
</svg>
