<svg width="25" height="20" viewBox="0 0 25 20" version="1.1" xmlns="http://www.w3.org/2000/svg" xmlns:xlink="http://www.w3.org/1999/xlink">
<title>resume</title>
<desc>Created using Figma</desc>
<g id="Canvas" transform="translate(-10291 -837)">
<g id="resume">
<g id="resume">
<use xlink:href="#path0_fill" transform="translate(10291 837)" fill="#2B2B2B"/>
</g>
</g>
</g>
<defs>
<path id="path0_fill" d="M 24.1719 5.86164L 12.6328 0.0907111C 12.4992 0.0309119 12.3545 9.20667e-08 12.2082 9.20667e-08C 12.0618 9.20667e-08 11.9171 0.0309119 11.7836 0.0907111L 0.247139 5.86164C 0.175288 5.88506 0.112688 5.93061 0.0682969 5.99177C 0.023906 6.05293 2.49471e-08 6.12657 2.49471e-08 6.20214C 2.49471e-08 6.27771 0.023906 6.35135 0.0682969 6.41251C 0.112688 6.47367 0.175288 6.51922 0.247139 6.54264L 1.99171 7.41357L 1.89946 7.41357L 1.89946 17.0562C 1.77012 17.1302 1.66538 17.2406 1.5983 17.3736L 0.844038 18.8984C 0.786372 19.0145 0.759261 19.1434 0.765269 19.2729C 0.771276 19.4024 0.810203 19.5282 0.87837 19.6385C 0.946537 19.7488 1.04169 19.8398 1.15485 19.9031C 1.268 19.9663 1.39541 19.9997 1.52505 20L 3.05256 20C 3.1828 20.0004 3.31096 19.9674 3.42483 19.9042C 3.5387 19.841 3.63448 19.7497 3.70303 19.6389C 3.77159 19.5282 3.81064 19.4018 3.81646 19.2717C 3.82229 19.1416 3.79468 19.0121 3.73628 18.8957L 2.98473 17.3736C 2.91765 17.2406 2.81292 17.1302 2.68357 17.0562L 2.68357 7.75272L 4.58279 8.70776L 4.58279 13.4233C 4.58279 14.4923 5.39675 15.4853 6.86729 16.2205C 8.29985 16.9368 10.1991 17.3302 12.215 17.3302C 14.2308 17.3302 16.1301 16.9368 17.5626 16.2205C 19.0359 15.4853 19.8471 14.4895 19.8471 13.4233L 19.8471 8.70776L 24.1882 6.53722C 24.2601 6.51379 24.3227 6.46824 24.367 6.40708C 24.4114 6.34592 24.4353 6.27229 24.4353 6.19671C 24.4353 6.12114 24.4114 6.04751 24.367 5.98634C 24.3227 5.92518 24.2601 5.87963 24.1882 5.85621L 24.1719 5.86164ZM 3.05256 19.2403L 1.52505 19.2403L 2.28745 17.7155L 3.05256 19.2403ZM 19.0766 13.4233C 19.0766 14.1884 18.4146 14.9399 17.2153 15.5395C 15.8886 16.2015 14.1088 16.5705 12.2095 16.5705C 10.3103 16.5705 8.53047 16.2015 7.20372 15.5395C 6.0045 14.9399 5.34248 14.1829 5.34248 13.4233L 5.34248 9.08218L 11.7836 12.3109C 11.9171 12.3707 12.0618 12.4016 12.2082 12.4016C 12.3545 12.4016 12.4992 12.3707 12.6328 12.3109L 19.0766 9.0876L 19.0766 13.4233ZM 12.2936 11.6244C 12.2649 11.6291 12.2356 11.6291 12.2068 11.6244C 12.1789 11.6283 12.1506 11.6283 12.1227 11.6244L 1.27001 6.19807L 12.1227 0.771718C 12.1515 0.767057 12.1808 0.767057 12.2095 0.771718C 12.2374 0.767819 12.2657 0.767819 12.2936 0.771718L 23.1463 6.19807L 12.2936 11.6244Z"/>
</defs>
</svg>
